<?xml version="1.0" encoding="utf-8"?>
<!-- Generator: Adobe Illustrator 16.0.0, SVG Export Plug-In . SVG Version: 6.00 Build 0)  -->
<!DOCTYPE svg PUBLIC "-//W3C//DTD SVG 1.1//EN" "http://www.w3.org/Graphics/SVG/1.1/DTD/svg11.dtd">
<svg version="1.1" id="Layer_1" xmlns="http://www.w3.org/2000/svg" xmlns:xlink="http://www.w3.org/1999/xlink" x="0px" y="0px"
	 width="423.159px" height="220.065px" viewBox="0 0 423.159 220.065" enable-background="new 0 0 423.159 220.065"
	 xml:space="preserve">
<path fill="#D4422F" d="M357.043,7.846c6.093,0,12.189,0,18.286,0c0.653,0.221,1.298,0.577,1.969,0.64
	c9.72,0.91,19.109,2.968,27.35,8.5c10.015,6.725,17.266,15.502,18.291,27.979c1.329,16.254-3.411,31.189-12.25,44.54
	c-11.053,16.705-27.169,26.759-46.356,31.934c-6.163,1.662-13.226,4.734-19.036,4.325c-19.146-6.293,0.082-26.304-0.038-38.233
	c2.277,20.954,0.032-5.175,4.047-4.677c1.471,0.184,3.072-0.758,4.626-1.154c7.302-1.869,11.721-6.888,12.723-13.967
	c0.979-6.906-2.515-12.571-8.176-16.572c-3.986-2.821-8.336-3.283-13.155-1.678c-8.083,2.692-13.804,7.215-14.318,16.326
	c-0.551,9.755-0.993,19.514-1.37,29.278c-0.312,8.106-0.542,16.219-0.662,24.333c-0.258,17.457-0.423,34.911-0.606,52.365
	c-0.046,4.952-0.005,9.909-0.005,14.566c-38.453,4.323-76.287,8.571-114.285,12.838c-18.581-19.688-0.405-8.728,0.607-13.315
	c12.985-1.27,0.396-10.152,0.685-15.22c0.607-10.663,1.319-21.316,1.913-31.975c0.312-5.619,0.363-11.247,0.704-16.864
	c0.299-4.927,0.984-9.833,1.223-14.76c0.234-4.867,0.947-10.056-4.608-12.84c-1.939,5.193-3.91,10.302-5.766,15.452
	c-9.883,27.467-19.758,54.935-29.591,82.423c-3.669,10.253-11.247,15.191-21.735,16.23c-27.144-7.043-9.095-25.602-10.056-35.97
	c-0.619-6.663-0.867-13.367-1.375-20.039c-0.818-10.75-1.772-21.491-2.55-32.244c-0.34-4.713-1.058-9.095-6.099-11.502
	c-0.306,1.356-0.561,2.603-0.866,3.839c-4.876,19.616-9.755,39.235-14.641,58.855c-3.055,12.272-6.157,24.535-9.141,36.821
	c-0.489,2.024-1.481,3.071-3.497,3.275c-5.127,0.519-10.261,0.978-15.374,1.595c-10.445,1.264-20.873,2.644-31.318,3.922
	c-6.309,0.768-11.429,1.36-18.938,2.207c-58.078,10.451-44.148-66.649-35.361-25.118c11.617,1.235,1.194-9.799,2.368-14.554
	c2.002-8.093,4.556-16.047,6.757-24.095c6.58-24.07,13.083-48.158,19.714-72.212c0.233-0.846,1.371-1.828,2.261-2.046
	c5.809-1.43,11.656-2.713,17.512-3.948c3.938-0.83,7.909-1.499,12.154-2.294c-0.115,1.136-0.103,1.667-0.227,2.168
	c-2.244,9.014-4.598,18.001-6.744,27.039c-4.565,19.236-9.085,38.484-13.493,57.754c-1.51,6.607,4.428,14.089,11.293,13.809
	c7.06-0.286,14.075-1.509,21.125-2.143c2.635-0.24,3.646-1.684,4.309-3.969c7.361-25.506,15.222-50.885,21.985-76.549
	c3.417-12.969,10.727-22.636,21.094-30.105c8.655-6.232,18.989-7.819,29.544-7.279c4.564,0.232,6.932,2.529,7.658,7.232
	c0.658,4.279,0.958,8.612,1.423,12.92c1.097,10.158,2.141,20.32,3.317,30.47c0.589,5.092-0.466,10.918,6.046,13.868
	c0.906-1.798,2.067-3.72,2.881-5.78c5.771-14.59,11.597-29.161,17.153-43.832c5.02-13.242,12.622-23.946,26.185-29.678
	c12.535-5.302,24.985-6.398,37.4-0.067c1.563,0.795,2.869,2.86,3.453,4.617c0.731,2.197,0.731,4.678,0.814,7.046
	c0.275,7.584,0.533,15.167,0.653,22.751c0.274,18.022,0.491,36.044,0.68,54.063c0.073,6.64,0.014,13.279-0.01,19.919
	c-0.013,3.854,0.64,7.459,3.872,10.024c0.57,0.455,1.531,0.791,2.193,0.644c0.483-0.11,1.034-1.085,1.09-1.71
	c0.511-5.803,0.947-11.615,1.347-17.428c0.286-4.197,0.419-8.404,0.723-12.603c0.822-11.62,1.646-23.241,2.574-34.852
	c0.57-7.178,0.69-14.477,2.156-21.482c3.288-15.721,11.804-28.834,23.29-39.656c11.661-10.983,26.09-17.429,41.512-21.526
	C348.523,9.375,352.809,8.713,357.043,7.846z"/>
<path fill="#F0F0F0" d="M348.771,0c6.098,0,12.194,0,18.287,0c0.657,0.221,1.298,0.577,1.968,0.639
	c9.721,0.91,19.11,2.968,27.354,8.5c10.015,6.725,17.261,15.503,18.286,27.979c1.33,16.254-3.406,31.188-12.244,44.54
	c-11.059,16.705-27.175,26.758-46.362,31.934c-6.162,1.665-12.456,2.844-19.031,4.324c0-13.223,0.055-25.728-0.042-38.232
	c-0.022-2.952,0.032-5.175,4.047-4.676c1.471,0.184,3.076-0.759,4.63-1.154c7.302-1.87,11.715-6.888,12.718-13.967
	c0.984-6.906-2.51-12.571-8.175-16.571c-3.986-2.821-8.336-3.283-13.155-1.679c-8.079,2.693-13.804,7.215-14.314,16.326
	c-0.551,9.755-0.992,19.515-1.37,29.278c-0.312,8.106-0.542,16.22-0.661,24.333c-0.258,17.455-0.428,34.908-0.607,52.363
	c-0.046,4.952-0.009,9.908-0.009,14.566c-38.449,4.322-76.283,8.575-114.283,12.843c0.216-4.718,0.414-9.017,0.607-13.316
	c0.227-5.076,0.393-10.152,0.685-15.224c0.607-10.663,1.323-21.312,1.913-31.971c0.312-5.619,0.363-11.251,0.704-16.866
	c0.299-4.927,0.984-9.833,1.223-14.76c0.235-4.868,0.948-10.056-4.604-12.84c-1.943,5.193-3.913,10.302-5.768,15.451
	c-9.884,27.469-19.759,54.938-29.592,82.42c-3.668,10.259-11.246,15.197-21.735,16.231c-5.03,0.496-6.081,0.051-6.745-4.902
	c-1.384-10.317-2.35-20.694-3.311-31.068c-0.619-6.662-0.867-13.362-1.375-20.038c-0.818-10.751-1.772-21.492-2.549-32.242
	c-0.34-4.713-1.058-9.095-6.1-11.502c-0.305,1.356-0.561,2.603-0.866,3.839c-4.876,19.617-9.755,39.232-14.641,58.853
	c-3.055,12.272-6.157,24.535-9.141,36.826c-0.49,2.019-1.48,3.071-3.497,3.273c-5.126,0.516-10.261,0.976-15.374,1.592
	c-10.444,1.264-20.873,2.647-31.317,3.922c-6.309,0.768-11.429,1.365-18.938,2.212c-23.427,3.54-35.999-7.808-35.361-25.124
	c0.789-4.852,1.193-9.794,2.368-14.549c2.002-8.092,4.556-16.052,6.757-24.099c6.58-24.071,13.083-48.155,19.714-72.21
	c0.232-0.846,1.37-1.828,2.26-2.046c5.81-1.43,11.656-2.713,17.512-3.948c3.938-0.83,7.909-1.499,12.155-2.294
	c-0.114,1.136-0.104,1.667-0.227,2.167c-2.244,9.015-4.599,18.001-6.744,27.04c-4.566,19.235-9.085,38.486-13.493,57.752
	c-1.51,6.612,4.428,14.088,11.293,13.812c7.06-0.285,14.074-1.513,21.125-2.147c2.635-0.239,3.647-1.683,4.309-3.969
	c7.361-25.505,15.222-50.882,21.985-76.546c3.416-12.969,10.727-22.637,21.093-30.106c8.656-6.233,18.99-7.819,29.545-7.279
	c4.563,0.232,6.932,2.529,7.658,7.233c0.658,4.279,0.958,8.612,1.423,12.92c1.097,10.157,2.141,20.319,3.317,30.47
	c0.588,5.092-0.467,10.917,6.046,13.867c0.906-1.798,2.067-3.719,2.881-5.779c5.771-14.59,11.596-29.161,17.154-43.832
	c5.018-13.243,12.622-23.946,26.186-29.678c12.535-5.302,24.981-6.398,37.4-0.066c1.563,0.795,2.865,2.859,3.448,4.616
	c0.736,2.198,0.731,4.679,0.819,7.047c0.275,7.584,0.533,15.166,0.648,22.75c0.28,18.022,0.491,36.044,0.685,54.067
	c0.074,6.64,0.01,13.279-0.009,19.919c-0.019,3.853,0.635,7.458,3.867,10.024c0.574,0.45,1.53,0.79,2.192,0.644
	c0.488-0.111,1.039-1.086,1.095-1.716c0.506-5.798,0.947-11.609,1.343-17.422c0.285-4.203,0.423-8.405,0.722-12.605
	c0.823-11.619,1.646-23.241,2.575-34.851c0.574-7.178,0.694-14.477,2.156-21.482c3.292-15.721,11.809-28.835,23.294-39.656
	c11.661-10.983,26.09-17.429,41.508-21.526C340.256,1.529,344.541,0.867,348.771,0z"/>
</svg>
