<!-- Generated by IcoMoon.io -->
<svg version="1.1" xmlns="http://www.w3.org/2000/svg" width="38" height="32" viewBox="0 0 38 32">
<title>lmp-radio</title>
<path fill="#d4422f" d="M4.378 11.044c-0.164 0.659-0.336 1.316-0.493 1.977-0.334 1.406-0.664 2.814-0.987 4.223-0.096 0.42 0.22 0.888 0.634 0.99-0.047-0.134-0.061-0.277-0.029-0.416 0.322-1.409 0.653-2.817 0.987-4.223 0.157-0.661 0.329-1.318 0.493-1.977 0.009-0.037 0.008-0.075 0.017-0.159-0.608-0.572-0.004-0.004-0.605-0.569-0.008 0.079-0.007 0.117-0.016 0.153z"></path>
<path fill="#d4422f" d="M10.985 9.486c-0.019-0.003-0.038-0.006-0.056-0.007-0.001 0-0.001 0-0.002 0 0.020 0.002 0.039 0.004 0.058 0.007z"></path>
<path fill="#d4422f" d="M11.454 10.005c0.048 0.313 0.070 0.63 0.104 0.945 0.080 0.743 0.157 1.486 0.243 2.228 0.043 0.372-0.034 0.798 0.442 1.014 0.053-0.105 0.117-0.217 0.172-0.334-0.002-0.036-0.005-0.071-0.009-0.106-0.086-0.742-0.162-1.485-0.242-2.228-0.034-0.315-0.056-0.632-0.104-0.945-0.041-0.263-0.437-0.756-0.806-0.982 0.107 0.087 0.173 0.22 0.202 0.408z"></path>
<path fill="#d4422f" d="M18.61 8.727c0.054 0.161 0.053 0.342 0.060 0.515 0.020 0.555 0.039 1.109 0.047 1.664 0.020 1.318 0.036 2.636 0.050 3.953 0.005 0.486 0.001 0.971-0.001 1.457-0.001 0.282 0.047 0.545 0.283 0.733 0.042 0.033 0.112 0.058 0.16 0.047 0.036-0.008 0.076-0.079 0.080-0.126 0.031-0.356 0.058-0.712 0.083-1.069-0-0.156 0-0.312-0.002-0.469-0.014-1.318-0.030-2.635-0.050-3.953-0.009-0.555-0.028-1.109-0.048-1.664-0.006-0.173-0.059-0.515-0.059-0.515s-0.168-0.579-0.782-0.867c-0.009-0.005-0.018-0.009-0.027-0.013 0.093 0.071 0.168 0.196 0.204 0.306z"></path>
<path fill="#d4422f" d="M30.876 9.277c-0.068-0.83-0.901-1.824-1.603-2.367 0.553 0.455 0.935 1.029 0.998 1.793 0.097 1.189-0.249 2.281-0.895 3.257-0.809 1.222-1.987 1.957-3.39 2.335-0.45 0.122-0.91 0.208-1.39 0.316 0.011 0.011 0.098 0.098 0.648 0.62 0.443-0.095 0.896-0.24 1.347-0.362 1.403-0.378 2.581-1.114 3.39-2.335 0.646-0.976 0.993-2.068 0.896-3.257z"></path>
<path fill="#d4422f" d="M15.34 13.683c0.014-0.147 0.027-0.293 0.034-0.44 0.017-0.356 0.069-0.735-0.337-0.939-0.142 0.38-0.286 0.753-0.422 1.13-0.723 2.009-1.445 4.017-2.164 6.027-0.268 0.75-0.822 1.111-1.589 1.187-0.243 0.024-0.359 0.017-0.424-0.094 0.123 0.274 0.421 0.511 1.028 0.669 0.767-0.076 1.321-0.437 1.589-1.187 0.719-2.010 1.441-4.019 2.164-6.027 0.039-0.108 0.080-0.216 0.12-0.325z"></path>
<path fill="#d4422f" d="M26.017 9.645c-0.107-0.187-0.266-0.351-0.46-0.488-0.291-0.206-0.61-0.24-0.962-0.123-0.591 0.197-1.009 0.528-1.047 1.194-0.040 0.713-0.073 1.427-0.1 2.141-0.023 0.593-0.040 1.186-0.048 1.779-0.019 1.276-0.031 2.553-0.044 3.829-0.003 0.362-0.001 0.724-0.001 1.065-2.811 0.316-5.577 0.627-8.356 0.939l-0 0c-0-0-0-0-0-0s-0 0-0.001 0c-0 0.002 0.049 0.049 0.604 0.574 2.778-0.312 5.545-0.623 8.357-0.939 0-0.341-0.003-0.703 0-1.065 0.013-1.276 0.025-2.553 0.044-3.829 0.009-0.593 0.026-1.187 0.048-1.779 0.028-0.714 0.060-1.428 0.1-2.141 0.038-0.666 0.456-0.997 1.047-1.194 0.295-0.098 0.565-0.089 0.817 0.037z"></path>
<path fill="#d4422f" d="M9.84 14.195c-0.025-0.345-0.077-0.665-0.446-0.841-0.022 0.099-0.041 0.19-0.063 0.281-0.357 1.434-0.713 2.869-1.071 4.304-0.223 0.897-0.45 1.794-0.668 2.693-0.036 0.148-0.108 0.224-0.256 0.239-0.375 0.038-0.75 0.071-1.124 0.116-0.764 0.093-1.526 0.193-2.29 0.287-0.461 0.056-0.836 0.1-1.385 0.162-1.445 0.218-2.325-0.338-2.537-1.277 0.166 0.943 0.957 2.244 3.142 1.851 0.549-0.062 0.923-0.105 1.385-0.161 0.764-0.093 1.526-0.194 2.29-0.287 0.374-0.045 0.749-0.079 1.124-0.117 0.147-0.015 0.22-0.091 0.256-0.239 0.218-0.898 0.445-1.795 0.668-2.692 0.333-1.338 0.666-2.676 0.998-4.014-0.008-0.101-0.016-0.202-0.023-0.303z"></path>
<path fill="#d4422f" d="M4.39 10.886c-0-0-0.001-0.001-0.001-0.001-0.005 0.001-0.010 0.003-0.016 0.004 0.006-0.001 0.011-0.002 0.017-0.003z"></path>
<path fill="#f0f0f0" d="M28.934 6.657c0.732 0.492 1.262 1.134 1.337 2.046 0.097 1.189-0.249 2.281-0.895 3.257-0.809 1.222-1.987 1.957-3.39 2.335-0.451 0.122-0.911 0.208-1.392 0.316 0-0.967 0.004-1.881-0.003-2.796-0.002-0.216 0.239-0.335 0.296-0.342s0.225-0.056 0.338-0.084c0.534-0.137 0.857-0.504 0.93-1.021 0.072-0.505-0.184-0.919-0.598-1.212-0.291-0.206-0.61-0.24-0.962-0.123-0.591 0.197-1.009 0.528-1.047 1.194-0.040 0.713-0.073 1.427-0.1 2.141-0.023 0.593-0.040 1.186-0.048 1.779-0.019 1.276-0.031 2.553-0.044 3.829-0.003 0.362-0.001 0.724-0.001 1.065-2.811 0.316-5.578 0.627-8.357 0.939 0.016-0.345 0.030-0.659 0.044-0.974 0.017-0.371 0.029-0.742 0.050-1.113 0.044-0.78 0.097-1.558 0.14-2.338 0.023-0.411 0.027-0.823 0.052-1.233 0.022-0.36 0.072-0.719 0.089-1.079 0.017-0.356 0.069-0.735-0.337-0.939-0.142 0.38-0.286 0.753-0.422 1.13-0.723 2.009-1.445 4.017-2.164 6.027-0.268 0.75-0.822 1.111-1.589 1.187-0.368 0.036-0.445 0.004-0.493-0.358-0.101-0.754-0.172-1.513-0.242-2.272-0.045-0.487-0.063-0.977-0.101-1.465-0.060-0.786-0.13-1.572-0.186-2.358-0.025-0.345-0.077-0.665-0.446-0.841-0.022 0.099-0.041 0.19-0.063 0.281-0.357 1.434-0.713 2.869-1.071 4.304-0.223 0.897-0.45 1.794-0.668 2.693-0.036 0.148-0.108 0.224-0.256 0.239-0.375 0.038-0.75 0.071-1.124 0.116-0.764 0.093-1.526 0.193-2.29 0.287-0.461 0.056-0.836 0.1-1.385 0.162-1.713 0.259-2.632-0.571-2.586-1.837 0.058-0.355 0.087-0.716 0.173-1.064 0.146-0.592 0.333-1.174 0.494-1.762 0.481-1.76 0.957-3.521 1.442-5.28 0.017-0.062 0.1-0.134 0.165-0.15 0.425-0.105 0.852-0.198 1.281-0.289 0.288-0.061 0.578-0.11 0.889-0.168-0.008 0.083-0.008 0.122-0.017 0.158-0.164 0.659-0.336 1.316-0.493 1.977-0.334 1.406-0.664 2.814-0.987 4.223-0.11 0.483 0.324 1.030 0.826 1.010 0.516-0.021 1.029-0.111 1.545-0.157 0.193-0.017 0.267-0.123 0.315-0.29 0.538-1.865 1.113-3.721 1.608-5.597 0.25-0.948 0.784-1.655 1.542-2.201 0.633-0.456 1.389-0.572 2.16-0.532 0.334 0.017 0.507 0.185 0.56 0.529 0.048 0.313 0.070 0.63 0.104 0.945 0.080 0.743 0.157 1.486 0.243 2.228 0.043 0.372-0.034 0.798 0.442 1.014 0.066-0.132 0.151-0.272 0.211-0.423 0.422-1.067 0.848-2.132 1.254-3.205 0.367-0.968 0.923-1.751 1.915-2.17 0.917-0.388 1.827-0.468 2.735-0.005 0.114 0.058 0.209 0.209 0.252 0.337 0.054 0.161 0.053 0.342 0.060 0.515 0.020 0.555 0.039 1.109 0.047 1.664 0.020 1.318 0.036 2.636 0.050 3.953 0.005 0.486 0.001 0.971-0.001 1.457-0.001 0.282 0.047 0.545 0.283 0.733 0.042 0.033 0.112 0.058 0.16 0.047 0.036-0.008 0.076-0.079 0.080-0.126 0.037-0.424 0.069-0.849 0.098-1.274 0.021-0.307 0.031-0.615 0.053-0.922 0.060-0.85 0.12-1.699 0.188-2.548 0.042-0.525 0.051-1.059 0.158-1.571 0.241-1.15 0.864-2.108 1.703-2.9 0.853-0.803 1.908-1.275 3.035-1.574 2.361-0.559 3.806 0.071 4.409 0.476z"></path>
<path fill="#e5e5e5" d="M31.638 24.365c0.878 0.005 1.694 0.214 2.411 0.737 0.787 0.572 1.256 1.349 1.427 2.302 0.155 0.862 0.060 1.7-0.325 2.49-0.511 1.054-1.352 1.71-2.487 1.978-0.968 0.229-1.918 0.158-2.821-0.273-0.957-0.453-1.591-1.202-1.902-2.209-0.298-0.962-0.274-1.921 0.136-2.847 0.495-1.115 1.369-1.787 2.547-2.062 0.329-0.077 0.673-0.099 1.012-0.145 0.001 0.009 0.003 0.018 0.003 0.028zM31.545 26.335c-0.59 0.021-1.103 0.327-1.383 0.963-0.269 0.611-0.24 1.231 0.052 1.825 0.27 0.549 0.722 0.862 1.339 0.893 0.622 0.032 1.111-0.223 1.445-0.752 0.277-0.441 0.344-0.928 0.285-1.44-0.1-0.868-0.781-1.488-1.738-1.49z"></path>
<path fill="#e5e5e5" d="M17.387 28.174c0-0.999-0.001-1.998 0.001-2.998 0-0.085 0.007-0.172 0.027-0.254 0.063-0.273 0.271-0.431 0.606-0.432 0.818-0.003 1.636-0.011 2.453 0.015 0.667 0.021 1.304 0.194 1.882 0.542 0.729 0.439 1.2 1.078 1.421 1.896 0.244 0.905 0.23 1.809-0.084 2.695-0.352 0.989-1.048 1.637-2.032 1.984-0.492 0.174-1.002 0.244-1.521 0.247-0.689 0.003-1.376 0.001-2.064 0-0.085-0.001-0.172-0.009-0.254-0.031-0.281-0.070-0.434-0.289-0.435-0.616-0.002-0.523-0-1.047-0-1.571-0-0.493-0-0.985-0-1.478zM19.558 30.032c0.268-0.011 0.53-0.003 0.785-0.035 0.588-0.077 1.014-0.384 1.213-0.952 0.199-0.57 0.202-1.15 0.008-1.721-0.138-0.406-0.411-0.696-0.812-0.858-0.229-0.092-0.469-0.127-0.714-0.129-0.159-0.003-0.318-0.001-0.48-0.001 0 1.236 0 2.453 0 3.696z"></path>
<path fill="#e5e5e5" d="M7.641 28.927c0.483 0.696 0.85 1.448 1.263 2.172 0.057 0.1 0.084 0.224 0.097 0.339 0.020 0.179-0.077 0.306-0.239 0.367-0.103 0.038-0.219 0.060-0.329 0.062-0.318 0.008-0.636 0.003-0.955 0.003-0.365 0-0.635-0.157-0.803-0.485-0.286-0.552-0.574-1.103-0.855-1.659-0.050-0.099-0.101-0.153-0.222-0.139-0.114 0.013-0.231 0.003-0.359 0.003-0.002 0.044-0.005 0.083-0.005 0.123-0 0.485 0 0.972-0.002 1.458 0 0.072-0.003 0.144-0.015 0.215-0.047 0.26-0.206 0.442-0.467 0.46-0.385 0.025-0.774 0.031-1.157 0.006-0.322-0.023-0.487-0.225-0.521-0.548-0.005-0.044-0.005-0.088-0.005-0.134 0-1.995 0-3.99 0.001-5.986 0-0.071 0.006-0.143 0.019-0.214 0.050-0.276 0.226-0.44 0.504-0.474 0.061-0.007 0.123-0.010 0.184-0.010 0.709-0.001 1.417-0.005 2.125 0.001 0.407 0.003 0.816 0.007 1.211 0.122 0.733 0.214 1.199 0.714 1.42 1.427 0.272 0.881 0.144 1.71-0.415 2.457-0.065 0.087-0.145 0.165-0.227 0.236-0.077 0.072-0.165 0.132-0.247 0.195zM5.24 26.323c0 0.488 0 0.95 0 1.415 0.2 0 0.392 0.013 0.581-0.003 0.375-0.029 0.564-0.203 0.625-0.55 0.012-0.067 0.016-0.136 0.017-0.204 0.007-0.356-0.145-0.558-0.497-0.612-0.235-0.035-0.476-0.032-0.726-0.046z"></path>
<path fill="#e5e5e5" d="M15.49 31.87c-0.144 0-0.288 0.002-0.431 0-0.388-0.005-0.661-0.229-0.743-0.61-0.043-0.196-0.085-0.394-0.124-0.591-0.012-0.061-0.038-0.084-0.102-0.084-0.64 0.003-1.279 0.003-1.92 0.001-0.062 0-0.088 0.017-0.1 0.082-0.039 0.202-0.083 0.402-0.13 0.602-0.093 0.403-0.34 0.6-0.751 0.6-0.267 0-0.534 0-0.801 0-0.010 0-0.020 0-0.030 0-0.481-0.007-0.693-0.298-0.544-0.756 0.262-0.802 0.528-1.602 0.793-2.403 0.401-1.216 0.803-2.433 1.203-3.65 0.135-0.408 0.362-0.574 0.792-0.575 0.362 0 0.725 0 1.088 0 0.41 0.002 0.644 0.171 0.773 0.558 0.12 0.36 0.24 0.72 0.358 1.080 0.549 1.661 1.097 3.322 1.643 4.983 0.022 0.068 0.042 0.139 0.048 0.209 0.029 0.33-0.176 0.541-0.539 0.553-0.161 0.006-0.322 0.001-0.482 0.001v0zM13.139 26.48c-0.185 0.804-0.368 1.593-0.551 2.387 0.368 0 0.725 0 1.092 0-0.181-0.795-0.358-1.583-0.541-2.387z"></path>
<path fill="#e5e5e5" d="M26.937 28.177c0 1.010 0.001 2.019-0.001 3.028 0 0.224-0.048 0.436-0.257 0.559-0.090 0.054-0.204 0.095-0.308 0.097-0.341 0.013-0.685 0.022-1.025 0-0.368-0.022-0.555-0.239-0.574-0.619-0.003-0.038-0.001-0.076-0.001-0.113-0.001-1.968-0.001-3.935 0-5.903 0-0.534 0.206-0.739 0.738-0.739 0.256 0 0.513-0.002 0.77 0.001 0.434 0.004 0.657 0.228 0.658 0.661 0.001 0.486 0 0.972 0 1.458 0 0.523 0 1.047 0 1.57z"></path>
<path fill="#d4422f" d="M36.564 3.319c-0.492-0.648-1.019-1.172-1.587-1.601 0.51 0.425 0.987 0.932 1.445 1.535 1.030 1.399 1.544 3.262 1.36 5.372-0.042 0.478-0.343 0.844-0.775 0.964-0.394 0.108-0.818-0.046-0.98-0.402-0.008-0.017-0.014-0.034-0.021-0.052 0.003 0.027 0.010 0.053 0.022 0.079 0.162 0.355 0.727 0.551 1.121 0.442 0.432-0.12 0.733-0.486 0.775-0.964 0.184-2.109-0.33-3.972-1.36-5.372z"></path>
<path fill="#efeff0" d="M36.422 3.252c1.030 1.399 1.544 3.262 1.36 5.372-0.042 0.478-0.343 0.844-0.775 0.964-0.394 0.108-0.818-0.046-0.98-0.402-0.075-0.165-0.098-0.372-0.083-0.563 0.089-1.183-0.081-2.294-0.568-3.319-0.849-1.784-2.278-2.926-4.269-3.441-0.296-0.077-0.603-0.156-0.855-0.306-0.298-0.178-0.347-0.622-0.181-0.974 0.159-0.339 0.575-0.634 0.932-0.576 0.555 0.092 1.113 0.204 1.632 0.386 1.495 0.524 2.697 1.42 3.788 2.858z"></path>
<path fill="#d4422f" d="M33.356 5.481c-0.565-0.749-1.29-1.327-2.119-1.712 0.77 0.384 1.444 0.938 1.977 1.644 0.785 1.082 1.155 2.384 1.019 3.864-0.045 0.488-0.354 0.864-0.793 0.975-0.186 0.047-0.374 0.035-0.538-0.024 0.191 0.114 0.437 0.152 0.68 0.090 0.439-0.11 0.748-0.486 0.793-0.974 0.137-1.482-0.234-2.783-1.019-3.864z"></path>
<path fill="#d4422f" d="M29.129 5.009c-0.068-0.012-0.132-0.030-0.191-0.052 0.095 0.055 0.206 0.096 0.333 0.119 0.347 0.063 0.675 0.168 0.979 0.307-0.344-0.173-0.72-0.301-1.121-0.374z"></path>
<path fill="#efeff0" d="M33.215 5.413c0.785 1.082 1.155 2.384 1.019 3.864-0.045 0.488-0.354 0.864-0.793 0.975-0.42 0.105-0.85-0.083-0.988-0.457-0.052-0.139-0.076-0.304-0.061-0.459 0.212-2.119-1.179-3.947-3.262-4.328-0.554-0.101-0.816-0.536-0.672-1.025 0.16-0.539 0.674-0.837 1.256-0.726 1.409 0.267 2.638 1.013 3.5 2.155z"></path>
</svg>
