<!-- Generated by IcoMoon.io -->
<svg version="1.1" xmlns="http://www.w3.org/2000/svg" width="61" height="32" viewBox="0 0 61 32">
<title>lmp</title>
<path fill="#d4422f" d="M8.791 10.091c-0.326 1.309-0.668 2.613-0.979 3.925-0.663 2.792-1.319 5.587-1.959 8.383-0.19 0.834 0.436 1.763 1.258 1.965-0.092-0.266-0.121-0.551-0.058-0.826 0.64-2.797 1.296-5.591 1.959-8.383 0.312-1.312 0.653-2.616 0.979-3.925 0.018-0.073 0.016-0.15 0.033-0.315-1.208-1.135-0.008-0.008-1.201-1.129-0.016 0.158-0.015 0.233-0.032 0.304z"></path>
<path fill="#d4422f" d="M21.907 6.999c-0.038-0.007-0.076-0.012-0.112-0.013-0.001 0-0.002 0-0.003 0 0.039 0.003 0.078 0.007 0.115 0.013z"></path>
<path fill="#d4422f" d="M22.838 8.029c0.096 0.621 0.139 1.25 0.207 1.875 0.159 1.474 0.311 2.949 0.482 4.423 0.085 0.739-0.068 1.585 0.878 2.013 0.105-0.209 0.233-0.43 0.341-0.663-0.005-0.071-0.010-0.142-0.019-0.211-0.171-1.473-0.322-2.949-0.481-4.423-0.067-0.626-0.111-1.254-0.207-1.875-0.081-0.522-0.867-1.502-1.601-1.948 0.212 0.172 0.343 0.437 0.401 0.81z"></path>
<path fill="#d4422f" d="M37.042 5.491c0.107 0.319 0.106 0.679 0.119 1.023 0.040 1.101 0.077 2.201 0.094 3.302 0.041 2.616 0.071 5.232 0.1 7.848 0.011 0.964 0.001 1.927-0.002 2.891-0.003 0.559 0.092 1.083 0.561 1.455 0.083 0.065 0.222 0.115 0.318 0.094 0.071-0.016 0.151-0.158 0.159-0.249 0.062-0.706 0.115-1.414 0.166-2.122-0-0.31 0-0.62-0.003-0.93-0.027-2.616-0.059-5.232-0.099-7.848-0.017-1.101-0.055-2.202-0.095-3.303-0.012-0.344-0.118-1.023-0.118-1.023s-0.334-1.15-1.552-1.721c-0.018-0.009-0.036-0.017-0.054-0.026 0.184 0.14 0.333 0.39 0.405 0.608z"></path>
<path fill="#d4422f" d="M61.392 6.583c-0.135-1.649-1.789-3.621-3.181-4.699 1.097 0.904 1.856 2.043 1.981 3.56 0.193 2.359-0.494 4.527-1.777 6.465-1.605 2.425-3.945 3.884-6.73 4.636-0.893 0.241-1.806 0.413-2.759 0.627 0.022 0.023 0.194 0.194 1.286 1.23 0.88-0.189 1.779-0.476 2.674-0.718 2.785-0.751 5.124-2.211 6.729-4.636 1.283-1.938 1.971-4.106 1.778-6.465z"></path>
<path fill="#d4422f" d="M30.552 15.331c0.027-0.291 0.053-0.582 0.067-0.874 0.034-0.707 0.137-1.46-0.668-1.864-0.282 0.754-0.568 1.495-0.837 2.243-1.435 3.987-2.868 7.975-4.296 11.964-0.532 1.489-1.632 2.206-3.155 2.356-0.483 0.048-0.712 0.034-0.841-0.187 0.244 0.544 0.835 1.014 2.041 1.327 1.522-0.151 2.622-0.868 3.155-2.356 1.427-3.99 2.861-7.977 4.295-11.964 0.078-0.215 0.159-0.43 0.238-0.644z"></path>
<path fill="#d4422f" d="M51.747 7.313c-0.212-0.372-0.527-0.697-0.912-0.969-0.579-0.409-1.21-0.476-1.909-0.244-1.173 0.391-2.004 1.047-2.078 2.37-0.080 1.416-0.144 2.833-0.199 4.25-0.045 1.177-0.079 2.354-0.096 3.532-0.037 2.534-0.062 5.067-0.088 7.601-0.007 0.719-0.001 1.438-0.001 2.114-5.58 0.627-11.072 1.245-16.587 1.864l-0 0c-0-0-0-0-0.001-0s-0.001 0-0.001 0c-0.001 0.005 0.097 0.098 1.2 1.139 5.516-0.62 11.008-1.236 16.589-1.864 0-0.676-0.006-1.396 0.001-2.114 0.026-2.534 0.050-5.067 0.088-7.601 0.017-1.178 0.051-2.356 0.096-3.532 0.055-1.417 0.119-2.834 0.199-4.25 0.074-1.322 0.905-1.979 2.078-2.37 0.585-0.195 1.123-0.176 1.621 0.074z"></path>
<path fill="#d4422f" d="M19.634 16.346c-0.049-0.684-0.154-1.32-0.885-1.67-0.044 0.197-0.081 0.378-0.126 0.557-0.708 2.847-1.416 5.695-2.125 8.543-0.444 1.781-0.894 3.561-1.327 5.346-0.071 0.293-0.215 0.446-0.507 0.475-0.744 0.075-1.49 0.142-2.232 0.231-1.516 0.184-3.030 0.384-4.546 0.569-0.916 0.112-1.659 0.198-2.749 0.321-2.869 0.433-4.616-0.671-5.037-2.536 0.329 1.872 1.9 4.454 6.237 3.674 1.090-0.123 1.833-0.209 2.749-0.32 1.516-0.186 3.030-0.386 4.546-0.569 0.742-0.090 1.487-0.156 2.232-0.232 0.293-0.030 0.437-0.182 0.508-0.475 0.433-1.783 0.883-3.564 1.327-5.345 0.662-2.656 1.322-5.312 1.982-7.968-0.015-0.201-0.031-0.401-0.046-0.602z"></path>
<path fill="#d4422f" d="M8.814 9.778c-0.001-0.001-0.001-0.001-0.002-0.002-0.010 0.002-0.021 0.006-0.031 0.008 0.011-0.002 0.022-0.004 0.033-0.006z"></path>
<path fill="#f0f0f0" d="M57.537 1.383c1.454 0.976 2.505 2.25 2.654 4.061 0.193 2.359-0.494 4.527-1.777 6.465-1.605 2.425-3.945 3.884-6.73 4.636-0.894 0.242-1.808 0.413-2.762 0.628 0-1.92 0.008-3.735-0.006-5.55-0.003-0.428 0.475-0.664 0.587-0.679s0.447-0.11 0.672-0.167c1.060-0.271 1.701-1 1.846-2.027 0.143-1.002-0.364-1.825-1.187-2.405-0.579-0.409-1.21-0.476-1.909-0.244-1.173 0.391-2.004 1.047-2.078 2.37-0.080 1.416-0.144 2.833-0.199 4.25-0.045 1.177-0.079 2.354-0.096 3.532-0.037 2.534-0.062 5.067-0.088 7.601-0.007 0.719-0.001 1.438-0.001 2.114-5.581 0.627-11.073 1.245-16.589 1.864 0.032-0.685 0.060-1.309 0.088-1.933 0.033-0.737 0.057-1.474 0.1-2.21 0.088-1.548 0.192-3.094 0.278-4.641 0.045-0.816 0.053-1.633 0.102-2.448 0.043-0.715 0.143-1.427 0.178-2.143 0.034-0.707 0.137-1.46-0.668-1.864-0.282 0.754-0.568 1.495-0.837 2.243-1.435 3.987-2.868 7.975-4.296 11.964-0.532 1.489-1.632 2.206-3.155 2.356-0.73 0.072-0.883 0.008-0.979-0.711-0.201-1.497-0.341-3.004-0.481-4.51-0.090-0.967-0.126-1.939-0.2-2.909-0.119-1.561-0.257-3.12-0.37-4.68-0.049-0.684-0.154-1.32-0.885-1.67-0.044 0.197-0.081 0.378-0.126 0.557-0.708 2.847-1.416 5.695-2.125 8.543-0.444 1.781-0.894 3.561-1.327 5.346-0.071 0.293-0.215 0.446-0.507 0.475-0.744 0.075-1.49 0.142-2.232 0.231-1.516 0.184-3.030 0.384-4.546 0.569-0.916 0.112-1.659 0.198-2.749 0.321-3.401 0.514-5.226-1.134-5.133-3.647 0.115-0.705 0.173-1.422 0.344-2.112 0.291-1.175 0.661-2.33 0.981-3.498 0.955-3.494 1.899-6.99 2.862-10.482 0.034-0.123 0.199-0.265 0.328-0.297 0.843-0.208 1.692-0.394 2.542-0.573 0.572-0.12 1.148-0.218 1.764-0.333-0.016 0.165-0.015 0.242-0.033 0.315-0.326 1.309-0.668 2.613-0.979 3.925-0.663 2.792-1.319 5.587-1.959 8.383-0.219 0.96 0.643 2.045 1.639 2.005 1.025-0.041 2.043-0.22 3.066-0.312 0.383-0.035 0.529-0.244 0.626-0.576 1.068-3.702 2.21-7.386 3.191-11.111 0.496-1.883 1.557-3.286 3.062-4.37 1.256-0.904 2.756-1.135 4.289-1.056 0.662 0.034 1.006 0.367 1.111 1.050 0.096 0.621 0.139 1.25 0.207 1.875 0.159 1.474 0.311 2.949 0.482 4.423 0.085 0.739-0.068 1.585 0.878 2.013 0.131-0.261 0.3-0.54 0.418-0.839 0.838-2.118 1.683-4.233 2.49-6.362 0.728-1.922 1.832-3.476 3.801-4.308 1.82-0.77 3.626-0.929 5.429-0.009 0.227 0.115 0.416 0.415 0.5 0.67 0.107 0.319 0.106 0.679 0.119 1.023 0.040 1.101 0.077 2.201 0.094 3.302 0.041 2.616 0.071 5.232 0.1 7.848 0.011 0.964 0.001 1.927-0.002 2.891-0.003 0.559 0.092 1.083 0.561 1.455 0.083 0.065 0.222 0.115 0.318 0.094 0.071-0.016 0.151-0.158 0.159-0.249 0.073-0.842 0.137-1.685 0.195-2.529 0.041-0.61 0.061-1.22 0.105-1.83 0.119-1.686 0.239-3.373 0.374-5.059 0.083-1.042 0.101-2.101 0.313-3.118 0.478-2.282 1.714-4.186 3.381-5.756 1.693-1.594 3.787-2.53 6.025-3.125 4.687-1.109 7.555 0.141 8.752 0.944z"></path>
</svg>
