<!-- Generated by IcoMoon.io -->
<svg version="1.1" xmlns="http://www.w3.org/2000/svg" width="32" height="32" viewBox="0 0 32 32">
<title>keyboard_control</title>
<path d="M16 13.979q1.063 0 1.875 0.813t0.813 1.875-0.813 1.875-1.875 0.813-1.875-0.813-0.813-1.875 0.813-1.875 1.875-0.813zM24 13.979q1.063 0 1.875 0.813t0.813 1.875-0.813 1.875-1.875 0.813-1.875-0.813-0.813-1.875 0.813-1.875 1.875-0.813zM8 13.979q1.063 0 1.875 0.813t0.813 1.875-0.813 1.875-1.875 0.813-1.875-0.813-0.813-1.875 0.813-1.875 1.875-0.813z"></path>
</svg>
