<!-- Generated by IcoMoon.io -->
<svg version="1.1" xmlns="http://www.w3.org/2000/svg" width="32" height="32" viewBox="0 0 32 32">
<title>volume_off</title>
<path d="M16 5.979v5.625l-2.813-2.813zM5.688 4.667l22.313 22.313-1.688 1.688-2.75-2.75q-2.313 1.813-4.875 2.438v-2.75q1.563-0.438 3-1.563l-5.688-5.688v9l-6.688-6.688h-5.313v-8h6.313l-6.313-6.313zM25.313 16.667q0-3.188-1.844-5.625t-4.781-3.313v-2.75q4.063 0.875 6.688 4.156t2.625 7.531q0 3-1.375 5.563l-2-2.063q0.688-1.688 0.688-3.5zM22 16.667q0 0.563-0.063 0.813l-3.25-3.25v-2.938q3.313 1.625 3.313 5.375z"></path>
</svg>
