<?xml version="1.0" standalone="no"?>
<!DOCTYPE svg PUBLIC "-//W3C//DTD SVG 20010904//EN"
 "http://www.w3.org/TR/2001/REC-SVG-20010904/DTD/svg10.dtd">
<svg version="1.0" xmlns="http://www.w3.org/2000/svg"
 width="2208.000000pt" height="2208.000000pt" viewBox="0 0 2208.000000 2208.000000"
 preserveAspectRatio="xMidYMid meet">
<metadata>
Created by potrace 1.11, written by Peter Selinger 2001-2013
</metadata>
<g transform="translate(0.000000,2208.000000) scale(0.100000,-0.100000)"
fill="#000000" stroke="none">
<path d="M0 11040 l0 -11040 11040 0 11040 0 0 11040 0 11040 -11040 0 -11040
0 0 -11040z m17895 4691 c337 -46 609 -116 905 -233 301 -119 463 -237 710
-513 99 -112 117 -138 166 -242 102 -218 152 -393 175 -613 48 -472 -131
-1192 -424 -1703 -147 -257 -286 -439 -506 -657 -229 -227 -443 -388 -744
-555 -370 -206 -703 -319 -1367 -463 l-315 -69 -7 36 c-12 60 -9 1701 3 1743
13 51 45 65 155 73 235 16 386 78 532 219 154 146 232 323 232 524 0 109 -20
206 -58 279 -54 103 -140 219 -210 284 -230 213 -573 238 -863 63 -158 -96
-298 -256 -361 -415 -55 -136 -59 -189 -103 -1244 -37 -905 -45 -1285 -59
-2852 -6 -727 -14 -1324 -18 -1328 -4 -4 -424 -54 -935 -111 -2193 -245 -3183
-358 -3567 -405 -224 -28 -410 -48 -413 -46 -15 16 4 476 61 1522 37 655 71
1332 76 1505 15 450 26 609 51 740 29 151 32 418 5 525 -20 82 -37 114 -114
207 l-57 69 -27 -61 c-46 -102 -1035 -2832 -1433 -3955 -64 -181 -135 -365
-158 -408 -128 -242 -373 -431 -652 -503 -107 -27 -312 -43 -396 -30 -49 7
-46 4 -90 123 -14 38 -32 193 -74 630 -124 1314 -234 2574 -255 2938 -6 105
-15 220 -20 257 -23 161 -100 282 -217 342 -32 16 -33 16 -38 -6 -51 -216
-1059 -4257 -1071 -4293 -18 -58 -46 -92 -91 -111 -18 -8 -171 -30 -340 -49
-419 -47 -1356 -156 -1753 -205 -1026 -124 -1310 -141 -1531 -91 -237 54 -431
173 -578 356 -35 44 -70 81 -77 83 -18 5 -91 196 -116 305 -18 75 -22 125 -22
267 0 307 -2 300 709 2910 249 916 468 1719 485 1785 36 135 55 178 97 217 40
38 80 52 233 83 74 15 338 69 585 121 298 63 461 93 482 89 30 -5 32 -8 27
-38 -7 -38 -291 -1238 -635 -2677 l-250 -1045 4 -95 c8 -196 105 -344 287
-436 l55 -28 190 2 c234 3 459 17 602 37 59 9 153 20 207 26 132 13 186 42
226 119 33 64 462 1537 729 2500 222 805 305 1072 393 1266 116 256 240 436
438 634 238 239 496 399 815 506 181 60 277 75 515 81 272 7 358 -3 449 -53
88 -48 98 -58 115 -118 49 -169 49 -167 190 -1541 42 -401 81 -755 87 -785 27
-134 114 -240 225 -274 18 -6 26 6 72 106 43 96 553 1374 777 1948 180 462
314 695 529 918 173 179 334 296 568 412 547 271 1221 284 1664 33 119 -67
131 -85 165 -248 51 -247 64 -788 94 -3970 7 -670 8 -689 62 -787 30 -56 113
-135 149 -144 41 -10 74 4 89 39 12 30 48 489 75 972 6 105 33 501 61 880 118
1635 124 1704 170 1926 70 340 234 728 437 1035 662 997 1679 1572 2982 1684
180 15 663 4 835 -19z"/>
</g>
</svg>
