<svg style="position: absolute; width: 0; height: 0; overflow: hidden;" version="1.1" xmlns="http://www.w3.org/2000/svg">
<defs>
<symbol id="icon-close" viewBox="0 0 32 32">
<title>close</title>
<path d="M31.708 25.708c-0-0-0-0-0-0l-9.708-9.708 9.708-9.708c0-0 0-0 0-0 0.105-0.105 0.18-0.227 0.229-0.357 0.133-0.356 0.057-0.771-0.229-1.057l-4.586-4.586c-0.286-0.286-0.702-0.361-1.057-0.229-0.13 0.048-0.252 0.124-0.357 0.228 0 0-0 0-0 0l-9.708 9.708-9.708-9.708c-0-0-0-0-0-0-0.105-0.104-0.227-0.18-0.357-0.228-0.356-0.133-0.771-0.057-1.057 0.229l-4.586 4.586c-0.286 0.286-0.361 0.702-0.229 1.057 0.049 0.13 0.124 0.252 0.229 0.357 0 0 0 0 0 0l9.708 9.708-9.708 9.708c-0 0-0 0-0 0-0.104 0.105-0.18 0.227-0.229 0.357-0.133 0.355-0.057 0.771 0.229 1.057l4.586 4.586c0.286 0.286 0.702 0.361 1.057 0.229 0.13-0.049 0.252-0.124 0.357-0.229 0-0 0-0 0-0l9.708-9.708 9.708 9.708c0 0 0 0 0 0 0.105 0.105 0.227 0.18 0.357 0.229 0.356 0.133 0.771 0.057 1.057-0.229l4.586-4.586c0.286-0.286 0.362-0.702 0.229-1.057-0.049-0.13-0.124-0.252-0.229-0.357z"></path>
</symbol>
<symbol id="icon-lock" viewBox="0 0 24 24">
<title>lock</title>
<path d="M15.094 8.016v-2.016c0-1.688-1.406-3.094-3.094-3.094s-3.094 1.406-3.094 3.094v2.016h6.188zM12 17.016c1.078 0 2.016-0.938 2.016-2.016s-0.938-2.016-2.016-2.016-2.016 0.938-2.016 2.016 0.938 2.016 2.016 2.016zM18 8.016c1.078 0 2.016 0.891 2.016 1.969v10.031c0 1.078-0.938 1.969-2.016 1.969h-12c-1.078 0-2.016-0.891-2.016-1.969v-10.031c0-1.078 0.938-1.969 2.016-1.969h0.984v-2.016c0-2.766 2.25-5.016 5.016-5.016s5.016 2.25 5.016 5.016v2.016h0.984z"></path>
</symbol>
<symbol id="icon-exit_to_app" viewBox="0 0 24 24">
<title>exit_to_app</title>
<path d="M18.984 3c1.078 0 2.016 0.938 2.016 2.016v13.969c0 1.078-0.938 2.016-2.016 2.016h-13.969c-1.125 0-2.016-0.938-2.016-2.016v-3.984h2.016v3.984h13.969v-13.969h-13.969v3.984h-2.016v-3.984c0-1.078 0.891-2.016 2.016-2.016h13.969zM10.078 15.609l2.578-2.625h-9.656v-1.969h9.656l-2.578-2.625 1.406-1.406 5.016 5.016-5.016 5.016z"></path>
</symbol>
<symbol id="icon-select-arrows" viewBox="0 0 20 20">
<title>select-arrows</title>
<path d="M10 1l-5 7h10l-5-7zM10 19l5-7h-10l5 7z"></path>
</symbol>
<symbol id="icon-lmp-radio" viewBox="0 0 38 32">
<title>lmp-radio</title>
<path fill="#d4422f" style="fill: var(--color1, #d4422f)" d="M4.378 11.044c-0.164 0.659-0.336 1.316-0.493 1.977-0.334 1.406-0.664 2.814-0.987 4.223-0.096 0.42 0.22 0.888 0.634 0.99-0.047-0.134-0.061-0.277-0.029-0.416 0.322-1.409 0.653-2.817 0.987-4.223 0.157-0.661 0.329-1.318 0.493-1.977 0.009-0.037 0.008-0.075 0.017-0.159-0.608-0.572-0.004-0.004-0.605-0.569-0.008 0.079-0.007 0.117-0.016 0.153z"></path>
<path fill="#d4422f" style="fill: var(--color1, #d4422f)" d="M10.985 9.486c-0.019-0.003-0.038-0.006-0.056-0.007-0.001 0-0.001 0-0.002 0 0.020 0.002 0.039 0.004 0.058 0.007z"></path>
<path fill="#d4422f" style="fill: var(--color1, #d4422f)" d="M11.454 10.005c0.048 0.313 0.070 0.63 0.104 0.945 0.080 0.743 0.157 1.486 0.243 2.228 0.043 0.372-0.034 0.798 0.442 1.014 0.053-0.105 0.117-0.217 0.172-0.334-0.002-0.036-0.005-0.071-0.009-0.106-0.086-0.742-0.162-1.485-0.242-2.228-0.034-0.315-0.056-0.632-0.104-0.945-0.041-0.263-0.437-0.756-0.806-0.982 0.107 0.087 0.173 0.22 0.202 0.408z"></path>
<path fill="#d4422f" style="fill: var(--color1, #d4422f)" d="M18.61 8.727c0.054 0.161 0.053 0.342 0.060 0.515 0.020 0.555 0.039 1.109 0.047 1.664 0.020 1.318 0.036 2.636 0.050 3.953 0.005 0.486 0.001 0.971-0.001 1.457-0.001 0.282 0.047 0.545 0.283 0.733 0.042 0.033 0.112 0.058 0.16 0.047 0.036-0.008 0.076-0.079 0.080-0.126 0.031-0.356 0.058-0.712 0.083-1.069-0-0.156 0-0.312-0.002-0.469-0.014-1.318-0.030-2.635-0.050-3.953-0.009-0.555-0.028-1.109-0.048-1.664-0.006-0.173-0.059-0.515-0.059-0.515s-0.168-0.579-0.782-0.867c-0.009-0.005-0.018-0.009-0.027-0.013 0.093 0.071 0.168 0.196 0.204 0.306z"></path>
<path fill="#d4422f" style="fill: var(--color1, #d4422f)" d="M30.876 9.277c-0.068-0.83-0.901-1.824-1.603-2.367 0.553 0.455 0.935 1.029 0.998 1.793 0.097 1.189-0.249 2.281-0.895 3.257-0.809 1.222-1.987 1.957-3.39 2.335-0.45 0.122-0.91 0.208-1.39 0.316 0.011 0.011 0.098 0.098 0.648 0.62 0.443-0.095 0.896-0.24 1.347-0.362 1.403-0.378 2.581-1.114 3.39-2.335 0.646-0.976 0.993-2.068 0.896-3.257z"></path>
<path fill="#d4422f" style="fill: var(--color1, #d4422f)" d="M15.34 13.683c0.014-0.147 0.027-0.293 0.034-0.44 0.017-0.356 0.069-0.735-0.337-0.939-0.142 0.38-0.286 0.753-0.422 1.13-0.723 2.009-1.445 4.017-2.164 6.027-0.268 0.75-0.822 1.111-1.589 1.187-0.243 0.024-0.359 0.017-0.424-0.094 0.123 0.274 0.421 0.511 1.028 0.669 0.767-0.076 1.321-0.437 1.589-1.187 0.719-2.010 1.441-4.019 2.164-6.027 0.039-0.108 0.080-0.216 0.12-0.325z"></path>
<path fill="#d4422f" style="fill: var(--color1, #d4422f)" d="M26.017 9.645c-0.107-0.187-0.266-0.351-0.46-0.488-0.291-0.206-0.61-0.24-0.962-0.123-0.591 0.197-1.009 0.528-1.047 1.194-0.040 0.713-0.073 1.427-0.1 2.141-0.023 0.593-0.040 1.186-0.048 1.779-0.019 1.276-0.031 2.553-0.044 3.829-0.003 0.362-0.001 0.724-0.001 1.065-2.811 0.316-5.577 0.627-8.356 0.939l-0 0c-0-0-0-0-0-0s-0 0-0.001 0c-0 0.002 0.049 0.049 0.604 0.574 2.778-0.312 5.545-0.623 8.357-0.939 0-0.341-0.003-0.703 0-1.065 0.013-1.276 0.025-2.553 0.044-3.829 0.009-0.593 0.026-1.187 0.048-1.779 0.028-0.714 0.060-1.428 0.1-2.141 0.038-0.666 0.456-0.997 1.047-1.194 0.295-0.098 0.565-0.089 0.817 0.037z"></path>
<path fill="#d4422f" style="fill: var(--color1, #d4422f)" d="M9.84 14.195c-0.025-0.345-0.077-0.665-0.446-0.841-0.022 0.099-0.041 0.19-0.063 0.281-0.357 1.434-0.713 2.869-1.071 4.304-0.223 0.897-0.45 1.794-0.668 2.693-0.036 0.148-0.108 0.224-0.256 0.239-0.375 0.038-0.75 0.071-1.124 0.116-0.764 0.093-1.526 0.193-2.29 0.287-0.461 0.056-0.836 0.1-1.385 0.162-1.445 0.218-2.325-0.338-2.537-1.277 0.166 0.943 0.957 2.244 3.142 1.851 0.549-0.062 0.923-0.105 1.385-0.161 0.764-0.093 1.526-0.194 2.29-0.287 0.374-0.045 0.749-0.079 1.124-0.117 0.147-0.015 0.22-0.091 0.256-0.239 0.218-0.898 0.445-1.795 0.668-2.692 0.333-1.338 0.666-2.676 0.998-4.014-0.008-0.101-0.016-0.202-0.023-0.303z"></path>
<path fill="#d4422f" style="fill: var(--color1, #d4422f)" d="M4.39 10.886c-0-0-0.001-0.001-0.001-0.001-0.005 0.001-0.010 0.003-0.016 0.004 0.006-0.001 0.011-0.002 0.017-0.003z"></path>
<path fill="#f0f0f0" style="fill: var(--color2, #f0f0f0)" d="M28.934 6.657c0.732 0.492 1.262 1.134 1.337 2.046 0.097 1.189-0.249 2.281-0.895 3.257-0.809 1.222-1.987 1.957-3.39 2.335-0.451 0.122-0.911 0.208-1.392 0.316 0-0.967 0.004-1.881-0.003-2.796-0.002-0.216 0.239-0.335 0.296-0.342s0.225-0.056 0.338-0.084c0.534-0.137 0.857-0.504 0.93-1.021 0.072-0.505-0.184-0.919-0.598-1.212-0.291-0.206-0.61-0.24-0.962-0.123-0.591 0.197-1.009 0.528-1.047 1.194-0.040 0.713-0.073 1.427-0.1 2.141-0.023 0.593-0.040 1.186-0.048 1.779-0.019 1.276-0.031 2.553-0.044 3.829-0.003 0.362-0.001 0.724-0.001 1.065-2.811 0.316-5.578 0.627-8.357 0.939 0.016-0.345 0.030-0.659 0.044-0.974 0.017-0.371 0.029-0.742 0.050-1.113 0.044-0.78 0.097-1.558 0.14-2.338 0.023-0.411 0.027-0.823 0.052-1.233 0.022-0.36 0.072-0.719 0.089-1.079 0.017-0.356 0.069-0.735-0.337-0.939-0.142 0.38-0.286 0.753-0.422 1.13-0.723 2.009-1.445 4.017-2.164 6.027-0.268 0.75-0.822 1.111-1.589 1.187-0.368 0.036-0.445 0.004-0.493-0.358-0.101-0.754-0.172-1.513-0.242-2.272-0.045-0.487-0.063-0.977-0.101-1.465-0.060-0.786-0.13-1.572-0.186-2.358-0.025-0.345-0.077-0.665-0.446-0.841-0.022 0.099-0.041 0.19-0.063 0.281-0.357 1.434-0.713 2.869-1.071 4.304-0.223 0.897-0.45 1.794-0.668 2.693-0.036 0.148-0.108 0.224-0.256 0.239-0.375 0.038-0.75 0.071-1.124 0.116-0.764 0.093-1.526 0.193-2.29 0.287-0.461 0.056-0.836 0.1-1.385 0.162-1.713 0.259-2.632-0.571-2.586-1.837 0.058-0.355 0.087-0.716 0.173-1.064 0.146-0.592 0.333-1.174 0.494-1.762 0.481-1.76 0.957-3.521 1.442-5.28 0.017-0.062 0.1-0.134 0.165-0.15 0.425-0.105 0.852-0.198 1.281-0.289 0.288-0.061 0.578-0.11 0.889-0.168-0.008 0.083-0.008 0.122-0.017 0.158-0.164 0.659-0.336 1.316-0.493 1.977-0.334 1.406-0.664 2.814-0.987 4.223-0.11 0.483 0.324 1.030 0.826 1.010 0.516-0.021 1.029-0.111 1.545-0.157 0.193-0.017 0.267-0.123 0.315-0.29 0.538-1.865 1.113-3.721 1.608-5.597 0.25-0.948 0.784-1.655 1.542-2.201 0.633-0.456 1.389-0.572 2.16-0.532 0.334 0.017 0.507 0.185 0.56 0.529 0.048 0.313 0.070 0.63 0.104 0.945 0.080 0.743 0.157 1.486 0.243 2.228 0.043 0.372-0.034 0.798 0.442 1.014 0.066-0.132 0.151-0.272 0.211-0.423 0.422-1.067 0.848-2.132 1.254-3.205 0.367-0.968 0.923-1.751 1.915-2.17 0.917-0.388 1.827-0.468 2.735-0.005 0.114 0.058 0.209 0.209 0.252 0.337 0.054 0.161 0.053 0.342 0.060 0.515 0.020 0.555 0.039 1.109 0.047 1.664 0.020 1.318 0.036 2.636 0.050 3.953 0.005 0.486 0.001 0.971-0.001 1.457-0.001 0.282 0.047 0.545 0.283 0.733 0.042 0.033 0.112 0.058 0.16 0.047 0.036-0.008 0.076-0.079 0.080-0.126 0.037-0.424 0.069-0.849 0.098-1.274 0.021-0.307 0.031-0.615 0.053-0.922 0.060-0.85 0.12-1.699 0.188-2.548 0.042-0.525 0.051-1.059 0.158-1.571 0.241-1.15 0.864-2.108 1.703-2.9 0.853-0.803 1.908-1.275 3.035-1.574 2.361-0.559 3.806 0.071 4.409 0.476z"></path>
<path fill="#e5e5e5" style="fill: var(--color3, #e5e5e5)" d="M31.638 24.365c0.878 0.005 1.694 0.214 2.411 0.737 0.787 0.572 1.256 1.349 1.427 2.302 0.155 0.862 0.060 1.7-0.325 2.49-0.511 1.054-1.352 1.71-2.487 1.978-0.968 0.229-1.918 0.158-2.821-0.273-0.957-0.453-1.591-1.202-1.902-2.209-0.298-0.962-0.274-1.921 0.136-2.847 0.495-1.115 1.369-1.787 2.547-2.062 0.329-0.077 0.673-0.099 1.012-0.145 0.001 0.009 0.003 0.018 0.003 0.028zM31.545 26.335c-0.59 0.021-1.103 0.327-1.383 0.963-0.269 0.611-0.24 1.231 0.052 1.825 0.27 0.549 0.722 0.862 1.339 0.893 0.622 0.032 1.111-0.223 1.445-0.752 0.277-0.441 0.344-0.928 0.285-1.44-0.1-0.868-0.781-1.488-1.738-1.49z"></path>
<path fill="#e5e5e5" style="fill: var(--color3, #e5e5e5)" d="M17.387 28.174c0-0.999-0.001-1.998 0.001-2.998 0-0.085 0.007-0.172 0.027-0.254 0.063-0.273 0.271-0.431 0.606-0.432 0.818-0.003 1.636-0.011 2.453 0.015 0.667 0.021 1.304 0.194 1.882 0.542 0.729 0.439 1.2 1.078 1.421 1.896 0.244 0.905 0.23 1.809-0.084 2.695-0.352 0.989-1.048 1.637-2.032 1.984-0.492 0.174-1.002 0.244-1.521 0.247-0.689 0.003-1.376 0.001-2.064 0-0.085-0.001-0.172-0.009-0.254-0.031-0.281-0.070-0.434-0.289-0.435-0.616-0.002-0.523-0-1.047-0-1.571-0-0.493-0-0.985-0-1.478zM19.558 30.032c0.268-0.011 0.53-0.003 0.785-0.035 0.588-0.077 1.014-0.384 1.213-0.952 0.199-0.57 0.202-1.15 0.008-1.721-0.138-0.406-0.411-0.696-0.812-0.858-0.229-0.092-0.469-0.127-0.714-0.129-0.159-0.003-0.318-0.001-0.48-0.001 0 1.236 0 2.453 0 3.696z"></path>
<path fill="#e5e5e5" style="fill: var(--color3, #e5e5e5)" d="M7.641 28.927c0.483 0.696 0.85 1.448 1.263 2.172 0.057 0.1 0.084 0.224 0.097 0.339 0.020 0.179-0.077 0.306-0.239 0.367-0.103 0.038-0.219 0.060-0.329 0.062-0.318 0.008-0.636 0.003-0.955 0.003-0.365 0-0.635-0.157-0.803-0.485-0.286-0.552-0.574-1.103-0.855-1.659-0.050-0.099-0.101-0.153-0.222-0.139-0.114 0.013-0.231 0.003-0.359 0.003-0.002 0.044-0.005 0.083-0.005 0.123-0 0.485 0 0.972-0.002 1.458 0 0.072-0.003 0.144-0.015 0.215-0.047 0.26-0.206 0.442-0.467 0.46-0.385 0.025-0.774 0.031-1.157 0.006-0.322-0.023-0.487-0.225-0.521-0.548-0.005-0.044-0.005-0.088-0.005-0.134 0-1.995 0-3.99 0.001-5.986 0-0.071 0.006-0.143 0.019-0.214 0.050-0.276 0.226-0.44 0.504-0.474 0.061-0.007 0.123-0.010 0.184-0.010 0.709-0.001 1.417-0.005 2.125 0.001 0.407 0.003 0.816 0.007 1.211 0.122 0.733 0.214 1.199 0.714 1.42 1.427 0.272 0.881 0.144 1.71-0.415 2.457-0.065 0.087-0.145 0.165-0.227 0.236-0.077 0.072-0.165 0.132-0.247 0.195zM5.24 26.323c0 0.488 0 0.95 0 1.415 0.2 0 0.392 0.013 0.581-0.003 0.375-0.029 0.564-0.203 0.625-0.55 0.012-0.067 0.016-0.136 0.017-0.204 0.007-0.356-0.145-0.558-0.497-0.612-0.235-0.035-0.476-0.032-0.726-0.046z"></path>
<path fill="#e5e5e5" style="fill: var(--color3, #e5e5e5)" d="M15.49 31.87c-0.144 0-0.288 0.002-0.431 0-0.388-0.005-0.661-0.229-0.743-0.61-0.043-0.196-0.085-0.394-0.124-0.591-0.012-0.061-0.038-0.084-0.102-0.084-0.64 0.003-1.279 0.003-1.92 0.001-0.062 0-0.088 0.017-0.1 0.082-0.039 0.202-0.083 0.402-0.13 0.602-0.093 0.403-0.34 0.6-0.751 0.6-0.267 0-0.534 0-0.801 0-0.010 0-0.020 0-0.030 0-0.481-0.007-0.693-0.298-0.544-0.756 0.262-0.802 0.528-1.602 0.793-2.403 0.401-1.216 0.803-2.433 1.203-3.65 0.135-0.408 0.362-0.574 0.792-0.575 0.362 0 0.725 0 1.088 0 0.41 0.002 0.644 0.171 0.773 0.558 0.12 0.36 0.24 0.72 0.358 1.080 0.549 1.661 1.097 3.322 1.643 4.983 0.022 0.068 0.042 0.139 0.048 0.209 0.029 0.33-0.176 0.541-0.539 0.553-0.161 0.006-0.322 0.001-0.482 0.001v0zM13.139 26.48c-0.185 0.804-0.368 1.593-0.551 2.387 0.368 0 0.725 0 1.092 0-0.181-0.795-0.358-1.583-0.541-2.387z"></path>
<path fill="#e5e5e5" style="fill: var(--color3, #e5e5e5)" d="M26.937 28.177c0 1.010 0.001 2.019-0.001 3.028 0 0.224-0.048 0.436-0.257 0.559-0.090 0.054-0.204 0.095-0.308 0.097-0.341 0.013-0.685 0.022-1.025 0-0.368-0.022-0.555-0.239-0.574-0.619-0.003-0.038-0.001-0.076-0.001-0.113-0.001-1.968-0.001-3.935 0-5.903 0-0.534 0.206-0.739 0.738-0.739 0.256 0 0.513-0.002 0.77 0.001 0.434 0.004 0.657 0.228 0.658 0.661 0.001 0.486 0 0.972 0 1.458 0 0.523 0 1.047 0 1.57z"></path>
<path fill="#d4422f" style="fill: var(--color1, #d4422f)" d="M36.564 3.319c-0.492-0.648-1.019-1.172-1.587-1.601 0.51 0.425 0.987 0.932 1.445 1.535 1.030 1.399 1.544 3.262 1.36 5.372-0.042 0.478-0.343 0.844-0.775 0.964-0.394 0.108-0.818-0.046-0.98-0.402-0.008-0.017-0.014-0.034-0.021-0.052 0.003 0.027 0.010 0.053 0.022 0.079 0.162 0.355 0.727 0.551 1.121 0.442 0.432-0.12 0.733-0.486 0.775-0.964 0.184-2.109-0.33-3.972-1.36-5.372z"></path>
<path fill="#efeff0" style="fill: var(--color4, #efeff0)" d="M36.422 3.252c1.030 1.399 1.544 3.262 1.36 5.372-0.042 0.478-0.343 0.844-0.775 0.964-0.394 0.108-0.818-0.046-0.98-0.402-0.075-0.165-0.098-0.372-0.083-0.563 0.089-1.183-0.081-2.294-0.568-3.319-0.849-1.784-2.278-2.926-4.269-3.441-0.296-0.077-0.603-0.156-0.855-0.306-0.298-0.178-0.347-0.622-0.181-0.974 0.159-0.339 0.575-0.634 0.932-0.576 0.555 0.092 1.113 0.204 1.632 0.386 1.495 0.524 2.697 1.42 3.788 2.858z"></path>
<path fill="#d4422f" style="fill: var(--color1, #d4422f)" d="M33.356 5.481c-0.565-0.749-1.29-1.327-2.119-1.712 0.77 0.384 1.444 0.938 1.977 1.644 0.785 1.082 1.155 2.384 1.019 3.864-0.045 0.488-0.354 0.864-0.793 0.975-0.186 0.047-0.374 0.035-0.538-0.024 0.191 0.114 0.437 0.152 0.68 0.090 0.439-0.11 0.748-0.486 0.793-0.974 0.137-1.482-0.234-2.783-1.019-3.864z"></path>
<path fill="#d4422f" style="fill: var(--color1, #d4422f)" d="M29.129 5.009c-0.068-0.012-0.132-0.030-0.191-0.052 0.095 0.055 0.206 0.096 0.333 0.119 0.347 0.063 0.675 0.168 0.979 0.307-0.344-0.173-0.72-0.301-1.121-0.374z"></path>
<path fill="#efeff0" style="fill: var(--color4, #efeff0)" d="M33.215 5.413c0.785 1.082 1.155 2.384 1.019 3.864-0.045 0.488-0.354 0.864-0.793 0.975-0.42 0.105-0.85-0.083-0.988-0.457-0.052-0.139-0.076-0.304-0.061-0.459 0.212-2.119-1.179-3.947-3.262-4.328-0.554-0.101-0.816-0.536-0.672-1.025 0.16-0.539 0.674-0.837 1.256-0.726 1.409 0.267 2.638 1.013 3.5 2.155z"></path>
</symbol>
<symbol id="icon-lmp" viewBox="0 0 61 32">
<title>lmp</title>
<path fill="#d4422f" style="fill: var(--color1, #d4422f)" d="M8.791 10.091c-0.326 1.309-0.668 2.613-0.979 3.925-0.663 2.792-1.319 5.587-1.959 8.383-0.19 0.834 0.436 1.763 1.258 1.965-0.092-0.266-0.121-0.551-0.058-0.826 0.64-2.797 1.296-5.591 1.959-8.383 0.312-1.312 0.653-2.616 0.979-3.925 0.018-0.073 0.016-0.15 0.033-0.315-1.208-1.135-0.008-0.008-1.201-1.129-0.016 0.158-0.015 0.233-0.032 0.304z"></path>
<path fill="#d4422f" style="fill: var(--color1, #d4422f)" d="M21.907 6.999c-0.038-0.007-0.076-0.012-0.112-0.013-0.001 0-0.002 0-0.003 0 0.039 0.003 0.078 0.007 0.115 0.013z"></path>
<path fill="#d4422f" style="fill: var(--color1, #d4422f)" d="M22.838 8.029c0.096 0.621 0.139 1.25 0.207 1.875 0.159 1.474 0.311 2.949 0.482 4.423 0.085 0.739-0.068 1.585 0.878 2.013 0.105-0.209 0.233-0.43 0.341-0.663-0.005-0.071-0.010-0.142-0.019-0.211-0.171-1.473-0.322-2.949-0.481-4.423-0.067-0.626-0.111-1.254-0.207-1.875-0.081-0.522-0.867-1.502-1.601-1.948 0.212 0.172 0.343 0.437 0.401 0.81z"></path>
<path fill="#d4422f" style="fill: var(--color1, #d4422f)" d="M37.042 5.491c0.107 0.319 0.106 0.679 0.119 1.023 0.040 1.101 0.077 2.201 0.094 3.302 0.041 2.616 0.071 5.232 0.1 7.848 0.011 0.964 0.001 1.927-0.002 2.891-0.003 0.559 0.092 1.083 0.561 1.455 0.083 0.065 0.222 0.115 0.318 0.094 0.071-0.016 0.151-0.158 0.159-0.249 0.062-0.706 0.115-1.414 0.166-2.122-0-0.31 0-0.62-0.003-0.93-0.027-2.616-0.059-5.232-0.099-7.848-0.017-1.101-0.055-2.202-0.095-3.303-0.012-0.344-0.118-1.023-0.118-1.023s-0.334-1.15-1.552-1.721c-0.018-0.009-0.036-0.017-0.054-0.026 0.184 0.14 0.333 0.39 0.405 0.608z"></path>
<path fill="#d4422f" style="fill: var(--color1, #d4422f)" d="M61.392 6.583c-0.135-1.649-1.789-3.621-3.181-4.699 1.097 0.904 1.856 2.043 1.981 3.56 0.193 2.359-0.494 4.527-1.777 6.465-1.605 2.425-3.945 3.884-6.73 4.636-0.893 0.241-1.806 0.413-2.759 0.627 0.022 0.023 0.194 0.194 1.286 1.23 0.88-0.189 1.779-0.476 2.674-0.718 2.785-0.751 5.124-2.211 6.729-4.636 1.283-1.938 1.971-4.106 1.778-6.465z"></path>
<path fill="#d4422f" style="fill: var(--color1, #d4422f)" d="M30.552 15.331c0.027-0.291 0.053-0.582 0.067-0.874 0.034-0.707 0.137-1.46-0.668-1.864-0.282 0.754-0.568 1.495-0.837 2.243-1.435 3.987-2.868 7.975-4.296 11.964-0.532 1.489-1.632 2.206-3.155 2.356-0.483 0.048-0.712 0.034-0.841-0.187 0.244 0.544 0.835 1.014 2.041 1.327 1.522-0.151 2.622-0.868 3.155-2.356 1.427-3.99 2.861-7.977 4.295-11.964 0.078-0.215 0.159-0.43 0.238-0.644z"></path>
<path fill="#d4422f" style="fill: var(--color1, #d4422f)" d="M51.747 7.313c-0.212-0.372-0.527-0.697-0.912-0.969-0.579-0.409-1.21-0.476-1.909-0.244-1.173 0.391-2.004 1.047-2.078 2.37-0.080 1.416-0.144 2.833-0.199 4.25-0.045 1.177-0.079 2.354-0.096 3.532-0.037 2.534-0.062 5.067-0.088 7.601-0.007 0.719-0.001 1.438-0.001 2.114-5.58 0.627-11.072 1.245-16.587 1.864l-0 0c-0-0-0-0-0.001-0s-0.001 0-0.001 0c-0.001 0.005 0.097 0.098 1.2 1.139 5.516-0.62 11.008-1.236 16.589-1.864 0-0.676-0.006-1.396 0.001-2.114 0.026-2.534 0.050-5.067 0.088-7.601 0.017-1.178 0.051-2.356 0.096-3.532 0.055-1.417 0.119-2.834 0.199-4.25 0.074-1.322 0.905-1.979 2.078-2.37 0.585-0.195 1.123-0.176 1.621 0.074z"></path>
<path fill="#d4422f" style="fill: var(--color1, #d4422f)" d="M19.634 16.346c-0.049-0.684-0.154-1.32-0.885-1.67-0.044 0.197-0.081 0.378-0.126 0.557-0.708 2.847-1.416 5.695-2.125 8.543-0.444 1.781-0.894 3.561-1.327 5.346-0.071 0.293-0.215 0.446-0.507 0.475-0.744 0.075-1.49 0.142-2.232 0.231-1.516 0.184-3.030 0.384-4.546 0.569-0.916 0.112-1.659 0.198-2.749 0.321-2.869 0.433-4.616-0.671-5.037-2.536 0.329 1.872 1.9 4.454 6.237 3.674 1.090-0.123 1.833-0.209 2.749-0.32 1.516-0.186 3.030-0.386 4.546-0.569 0.742-0.090 1.487-0.156 2.232-0.232 0.293-0.030 0.437-0.182 0.508-0.475 0.433-1.783 0.883-3.564 1.327-5.345 0.662-2.656 1.322-5.312 1.982-7.968-0.015-0.201-0.031-0.401-0.046-0.602z"></path>
<path fill="#d4422f" style="fill: var(--color1, #d4422f)" d="M8.814 9.778c-0.001-0.001-0.001-0.001-0.002-0.002-0.010 0.002-0.021 0.006-0.031 0.008 0.011-0.002 0.022-0.004 0.033-0.006z"></path>
<path fill="#f0f0f0" style="fill: var(--color2, #f0f0f0)" d="M57.537 1.383c1.454 0.976 2.505 2.25 2.654 4.061 0.193 2.359-0.494 4.527-1.777 6.465-1.605 2.425-3.945 3.884-6.73 4.636-0.894 0.242-1.808 0.413-2.762 0.628 0-1.92 0.008-3.735-0.006-5.55-0.003-0.428 0.475-0.664 0.587-0.679s0.447-0.11 0.672-0.167c1.060-0.271 1.701-1 1.846-2.027 0.143-1.002-0.364-1.825-1.187-2.405-0.579-0.409-1.21-0.476-1.909-0.244-1.173 0.391-2.004 1.047-2.078 2.37-0.080 1.416-0.144 2.833-0.199 4.25-0.045 1.177-0.079 2.354-0.096 3.532-0.037 2.534-0.062 5.067-0.088 7.601-0.007 0.719-0.001 1.438-0.001 2.114-5.581 0.627-11.073 1.245-16.589 1.864 0.032-0.685 0.060-1.309 0.088-1.933 0.033-0.737 0.057-1.474 0.1-2.21 0.088-1.548 0.192-3.094 0.278-4.641 0.045-0.816 0.053-1.633 0.102-2.448 0.043-0.715 0.143-1.427 0.178-2.143 0.034-0.707 0.137-1.46-0.668-1.864-0.282 0.754-0.568 1.495-0.837 2.243-1.435 3.987-2.868 7.975-4.296 11.964-0.532 1.489-1.632 2.206-3.155 2.356-0.73 0.072-0.883 0.008-0.979-0.711-0.201-1.497-0.341-3.004-0.481-4.51-0.090-0.967-0.126-1.939-0.2-2.909-0.119-1.561-0.257-3.12-0.37-4.68-0.049-0.684-0.154-1.32-0.885-1.67-0.044 0.197-0.081 0.378-0.126 0.557-0.708 2.847-1.416 5.695-2.125 8.543-0.444 1.781-0.894 3.561-1.327 5.346-0.071 0.293-0.215 0.446-0.507 0.475-0.744 0.075-1.49 0.142-2.232 0.231-1.516 0.184-3.030 0.384-4.546 0.569-0.916 0.112-1.659 0.198-2.749 0.321-3.401 0.514-5.226-1.134-5.133-3.647 0.115-0.705 0.173-1.422 0.344-2.112 0.291-1.175 0.661-2.33 0.981-3.498 0.955-3.494 1.899-6.99 2.862-10.482 0.034-0.123 0.199-0.265 0.328-0.297 0.843-0.208 1.692-0.394 2.542-0.573 0.572-0.12 1.148-0.218 1.764-0.333-0.016 0.165-0.015 0.242-0.033 0.315-0.326 1.309-0.668 2.613-0.979 3.925-0.663 2.792-1.319 5.587-1.959 8.383-0.219 0.96 0.643 2.045 1.639 2.005 1.025-0.041 2.043-0.22 3.066-0.312 0.383-0.035 0.529-0.244 0.626-0.576 1.068-3.702 2.21-7.386 3.191-11.111 0.496-1.883 1.557-3.286 3.062-4.37 1.256-0.904 2.756-1.135 4.289-1.056 0.662 0.034 1.006 0.367 1.111 1.050 0.096 0.621 0.139 1.25 0.207 1.875 0.159 1.474 0.311 2.949 0.482 4.423 0.085 0.739-0.068 1.585 0.878 2.013 0.131-0.261 0.3-0.54 0.418-0.839 0.838-2.118 1.683-4.233 2.49-6.362 0.728-1.922 1.832-3.476 3.801-4.308 1.82-0.77 3.626-0.929 5.429-0.009 0.227 0.115 0.416 0.415 0.5 0.67 0.107 0.319 0.106 0.679 0.119 1.023 0.040 1.101 0.077 2.201 0.094 3.302 0.041 2.616 0.071 5.232 0.1 7.848 0.011 0.964 0.001 1.927-0.002 2.891-0.003 0.559 0.092 1.083 0.561 1.455 0.083 0.065 0.222 0.115 0.318 0.094 0.071-0.016 0.151-0.158 0.159-0.249 0.073-0.842 0.137-1.685 0.195-2.529 0.041-0.61 0.061-1.22 0.105-1.83 0.119-1.686 0.239-3.373 0.374-5.059 0.083-1.042 0.101-2.101 0.313-3.118 0.478-2.282 1.714-4.186 3.381-5.756 1.693-1.594 3.787-2.53 6.025-3.125 4.687-1.109 7.555 0.141 8.752 0.944z"></path>
</symbol>
<symbol id="icon-error_outline" viewBox="0 0 32 32">
<title>error_outline</title>
<path d="M16 27.354q4.375 0 7.531-3.156t3.156-7.531-3.156-7.531-7.531-3.156-7.531 3.156-3.156 7.531 3.156 7.531 7.531 3.156zM16 3.354q5.5 0 9.406 3.906t3.906 9.406-3.906 9.406-9.406 3.906-9.406-3.906-3.906-9.406 3.906-9.406 9.406-3.906zM14.688 9.979h2.625v8h-2.625v-8zM14.688 20.667h2.625v2.688h-2.625v-2.688z"></path>
</symbol>
<symbol id="icon-fast_forward" viewBox="0 0 32 32">
<title>fast_forward</title>
<path d="M17.313 8.667l11.375 8-11.375 8v-16zM5.313 24.667v-16l11.375 8z"></path>
</symbol>
<symbol id="icon-fast_rewind" viewBox="0 0 32 32">
<title>fast_rewind</title>
<path d="M15.313 16.667l11.375-8v16zM14.688 24.667l-11.375-8 11.375-8v16z"></path>
</symbol>
<symbol id="icon-pause" viewBox="0 0 32 32">
<title>pause</title>
<path d="M18.688 7.354h5.313v18.625h-5.313v-18.625zM8 25.979v-18.625h5.313v18.625h-5.313z"></path>
</symbol>
<symbol id="icon-pause_circle_filled" viewBox="0 0 32 32">
<title>pause_circle_filled</title>
<path d="M20 21.979v-10.625h-2.688v10.625h2.688zM14.688 21.979v-10.625h-2.688v10.625h2.688zM16 3.354q5.5 0 9.406 3.906t3.906 9.406-3.906 9.406-9.406 3.906-9.406-3.906-3.906-9.406 3.906-9.406 9.406-3.906z"></path>
</symbol>
<symbol id="icon-pause_circle_outline" viewBox="0 0 32 32">
<title>pause_circle_outline</title>
<path d="M17.313 21.979v-10.625h2.688v10.625h-2.688zM16 27.354q4.375 0 7.531-3.156t3.156-7.531-3.156-7.531-7.531-3.156-7.531 3.156-3.156 7.531 3.156 7.531 7.531 3.156zM16 3.354q5.5 0 9.406 3.906t3.906 9.406-3.906 9.406-9.406 3.906-9.406-3.906-3.906-9.406 3.906-9.406 9.406-3.906zM12 21.979v-10.625h2.688v10.625h-2.688z"></path>
</symbol>
<symbol id="icon-play_arrow" viewBox="0 0 32 32">
<title>play_arrow</title>
<path d="M10.688 7.354l14.625 9.313-14.625 9.313v-18.625z"></path>
</symbol>
<symbol id="icon-play_circle_filled" viewBox="0 0 32 32">
<title>play_circle_filled</title>
<path d="M13.313 22.667l8-6-8-6v12zM16 3.354q5.5 0 9.406 3.906t3.906 9.406-3.906 9.406-9.406 3.906-9.406-3.906-3.906-9.406 3.906-9.406 9.406-3.906z"></path>
</symbol>
<symbol id="icon-play_circle_outline" viewBox="0 0 32 32">
<title>play_circle_outline</title>
<path d="M16 27.354q4.375 0 7.531-3.156t3.156-7.531-3.156-7.531-7.531-3.156-7.531 3.156-3.156 7.531 3.156 7.531 7.531 3.156zM16 3.354q5.5 0 9.406 3.906t3.906 9.406-3.906 9.406-9.406 3.906-9.406-3.906-3.906-9.406 3.906-9.406 9.406-3.906zM13.313 22.667v-12l8 6z"></path>
</symbol>
<symbol id="icon-playlist_add" viewBox="0 0 32 32">
<title>playlist_add</title>
<path d="M2.688 21.979v-2.625h10.625v2.625h-10.625zM24 19.354h5.313v2.625h-5.313v5.375h-2.688v-5.375h-5.313v-2.625h5.313v-5.375h2.688v5.375zM18.688 8.667v2.688h-16v-2.688h16zM18.688 13.979v2.688h-16v-2.688h16z"></path>
</symbol>
<symbol id="icon-queue_music" viewBox="0 0 32 32">
<title>queue_music</title>
<path d="M22.688 8.667h6.625v2.688h-4v12q0 1.625-1.188 2.813t-2.813 1.188-2.813-1.188-1.188-2.813 1.188-2.813 2.813-1.188q0.5 0 1.375 0.25v-10.938zM4 21.979v-2.625h10.688v2.625h-10.688zM20 13.979v2.688h-16v-2.688h16zM20 8.667v2.688h-16v-2.688h16z"></path>
</symbol>
<symbol id="icon-skip_next" viewBox="0 0 32 32">
<title>skip_next</title>
<path d="M21.313 8.667h2.688v16h-2.688v-16zM8 24.667v-16l11.313 8z"></path>
</symbol>
<symbol id="icon-skip_previous" viewBox="0 0 32 32">
<title>skip_previous</title>
<path d="M12.688 16.667l11.313-8v16zM8 8.667h2.688v16h-2.688v-16z"></path>
</symbol>
<symbol id="icon-stop" viewBox="0 0 32 32">
<title>stop</title>
<path d="M8 8.667h16v16h-16v-16z"></path>
</symbol>
<symbol id="icon-volume_down" viewBox="0 0 32 32">
<title>volume_down</title>
<path d="M6.688 12.667h5.313l6.688-6.688v21.375l-6.688-6.688h-5.313v-8zM24.688 16.667q0 3.688-3.375 5.375v-10.75q3.375 1.688 3.375 5.375z"></path>
</symbol>
<symbol id="icon-volume_mute" viewBox="0 0 32 32">
<title>volume_mute</title>
<path d="M9.313 12.667h5.375l6.625-6.688v21.375l-6.625-6.688h-5.375v-8z"></path>
</symbol>
<symbol id="icon-volume_off" viewBox="0 0 32 32">
<title>volume_off</title>
<path d="M16 5.979v5.625l-2.813-2.813zM5.688 4.667l22.313 22.313-1.688 1.688-2.75-2.75q-2.313 1.813-4.875 2.438v-2.75q1.563-0.438 3-1.563l-5.688-5.688v9l-6.688-6.688h-5.313v-8h6.313l-6.313-6.313zM25.313 16.667q0-3.188-1.844-5.625t-4.781-3.313v-2.75q4.063 0.875 6.688 4.156t2.625 7.531q0 3-1.375 5.563l-2-2.063q0.688-1.688 0.688-3.5zM22 16.667q0 0.563-0.063 0.813l-3.25-3.25v-2.938q3.313 1.625 3.313 5.375z"></path>
</symbol>
<symbol id="icon-volume_up" viewBox="0 0 32 32">
<title>volume_up</title>
<path d="M18.688 4.979q4.063 0.875 6.688 4.156t2.625 7.531-2.625 7.531-6.688 4.156v-2.75q2.938-0.875 4.781-3.313t1.844-5.625-1.844-5.625-4.781-3.313v-2.75zM22 16.667q0 3.75-3.313 5.375v-10.75q3.313 1.625 3.313 5.375zM4 12.667h5.313l6.688-6.688v21.375l-6.688-6.688h-5.313v-8z"></path>
</symbol>
<symbol id="icon-call" viewBox="0 0 32 32">
<title>call</title>
<path d="M8.813 15.042q3 5.813 8.813 8.813l2.938-2.938q0.625-0.625 1.375-0.313 2.25 0.75 4.75 0.75 0.563 0 0.938 0.375t0.375 0.938v4.688q0 0.563-0.375 0.938t-0.938 0.375q-9.375 0-16.031-6.656t-6.656-16.031q0-0.563 0.375-0.938t0.938-0.375h4.688q0.563 0 0.938 0.375t0.375 0.938q0 2.5 0.75 4.75 0.25 0.813-0.313 1.375z"></path>
</symbol>
<symbol id="icon-email" viewBox="0 0 32 32">
<title>email</title>
<path d="M26.688 11.354v-2.688l-10.688 6.688-10.688-6.688v2.688l10.688 6.625zM26.688 5.979q1.063 0 1.844 0.813t0.781 1.875v16q0 1.063-0.781 1.875t-1.844 0.813h-21.375q-1.063 0-1.844-0.813t-0.781-1.875v-16q0-1.063 0.781-1.875t1.844-0.813h21.375z"></path>
</symbol>
<symbol id="icon-forum" viewBox="0 0 32 32">
<title>forum</title>
<path d="M22.688 16.667q0 0.563-0.406 0.938t-0.969 0.375h-13.313l-5.313 5.375v-18.688q0-0.563 0.375-0.938t0.938-0.375h17.313q0.563 0 0.969 0.375t0.406 0.938v12zM28 8.667q0.563 0 0.938 0.375t0.375 0.938v20l-5.313-5.313h-14.688q-0.563 0-0.938-0.375t-0.375-0.938v-2.688h17.313v-12h2.688z"></path>
</symbol>
<symbol id="icon-import_export" viewBox="0 0 32 32">
<title>import_export</title>
<path d="M21.313 23.354h4l-5.313 5.313-5.313-5.313h4v-9.375h2.625v9.375zM12 4.667l5.313 5.312h-4v9.375h-2.625v-9.375h-4z"></path>
</symbol>
<symbol id="icon-chat_bubble_outline" viewBox="0 0 32 32">
<title>chat_bubble_outline</title>
<path d="M26.688 21.979v-16h-21.375v18.688l2.688-2.688h18.688zM26.688 3.354q1.063 0 1.844 0.781t0.781 1.844v16q0 1.063-0.781 1.875t-1.844 0.813h-18.688l-5.313 5.313v-24q0-1.063 0.781-1.844t1.844-0.781h21.375z"></path>
</symbol>
<symbol id="icon-phone" viewBox="0 0 32 32">
<title>phone</title>
<path d="M8.813 15.042q3 5.813 8.813 8.813l2.938-2.938q0.625-0.625 1.375-0.313 2.25 0.75 4.75 0.75 0.563 0 0.938 0.375t0.375 0.938v4.688q0 0.563-0.375 0.938t-0.938 0.375q-9.375 0-16.031-6.656t-6.656-16.031q0-0.563 0.375-0.938t0.938-0.375h4.688q0.563 0 0.938 0.375t0.375 0.938q0 2.5 0.75 4.75 0.25 0.813-0.313 1.375z"></path>
</symbol>
<symbol id="icon-textsms" viewBox="0 0 32 32">
<title>textsms</title>
<path d="M22.688 15.354v-2.688h-2.688v2.688h2.688zM17.313 15.354v-2.688h-2.625v2.688h2.625zM12 15.354v-2.688h-2.688v2.688h2.688zM26.688 3.354q1.063 0 1.844 0.781t0.781 1.844v16q0 1.063-0.781 1.875t-1.844 0.813h-18.688l-5.313 5.313v-24q0-1.063 0.781-1.844t1.844-0.781h21.375z"></path>
</symbol>
<symbol id="icon-add" viewBox="0 0 32 32">
<title>add</title>
<path d="M25.313 17.979h-8v8h-2.625v-8h-8v-2.625h8v-8h2.625v8h8v2.625z"></path>
</symbol>
<symbol id="icon-add_box" viewBox="0 0 32 32">
<title>add_box</title>
<path d="M22.688 17.979v-2.625h-5.375v-5.375h-2.625v5.375h-5.375v2.625h5.375v5.375h2.625v-5.375h5.375zM25.313 4.667q1.063 0 1.875 0.813t0.813 1.875v18.625q0 1.063-0.813 1.875t-1.875 0.813h-18.625q-1.125 0-1.906-0.813t-0.781-1.875v-18.625q0-1.063 0.781-1.875t1.906-0.813h18.625z"></path>
</symbol>
<symbol id="icon-add_circle" viewBox="0 0 32 32">
<title>add_circle</title>
<path d="M22.688 17.979v-2.625h-5.375v-5.375h-2.625v5.375h-5.375v2.625h5.375v5.375h2.625v-5.375h5.375zM16 3.354q5.5 0 9.406 3.906t3.906 9.406-3.906 9.406-9.406 3.906-9.406-3.906-3.906-9.406 3.906-9.406 9.406-3.906z"></path>
</symbol>
<symbol id="icon-add_circle_outline" viewBox="0 0 32 32">
<title>add_circle_outline</title>
<path d="M16 27.354q4.375 0 7.531-3.156t3.156-7.531-3.156-7.531-7.531-3.156-7.531 3.156-3.156 7.531 3.156 7.531 7.531 3.156zM16 3.354q5.5 0 9.406 3.906t3.906 9.406-3.906 9.406-9.406 3.906-9.406-3.906-3.906-9.406 3.906-9.406 9.406-3.906zM17.313 9.979v5.375h5.375v2.625h-5.375v5.375h-2.625v-5.375h-5.375v-2.625h5.375v-5.375h2.625z"></path>
</symbol>
<symbol id="icon-clear" viewBox="0 0 32 32">
<title>clear</title>
<path d="M25.313 9.229l-7.438 7.438 7.438 7.438-1.875 1.875-7.438-7.438-7.438 7.438-1.875-1.875 7.438-7.438-7.438-7.438 1.875-1.875 7.438 7.438 7.438-7.438z"></path>
</symbol>
<symbol id="icon-link" viewBox="0 0 32 32">
<title>link</title>
<path d="M22.688 9.979q2.75 0 4.688 1.969t1.938 4.719-1.938 4.719-4.688 1.969h-5.375v-2.563h5.375q1.688 0 2.906-1.219t1.219-2.906-1.219-2.906-2.906-1.219h-5.375v-2.563h5.375zM10.688 17.979v-2.625h10.625v2.625h-10.625zM5.188 16.667q0 1.688 1.219 2.906t2.906 1.219h5.375v2.563h-5.375q-2.75 0-4.688-1.969t-1.938-4.719 1.938-4.719 4.688-1.969h5.375v2.563h-5.375q-1.688 0-2.906 1.219t-1.219 2.906z"></path>
</symbol>
<symbol id="icon-mail" viewBox="0 0 32 32">
<title>mail</title>
<path d="M26.688 11.354v-2.688l-10.688 6.688-10.688-6.688v2.688l10.688 6.625zM26.688 5.979q1.063 0 1.844 0.813t0.781 1.875v16q0 1.063-0.781 1.875t-1.844 0.813h-21.375q-1.063 0-1.844-0.813t-0.781-1.875v-16q0-1.063 0.781-1.875t1.844-0.813h21.375z"></path>
</symbol>
<symbol id="icon-remove" viewBox="0 0 32 32">
<title>remove</title>
<path d="M25.313 17.979h-18.625v-2.625h18.625v2.625z"></path>
</symbol>
<symbol id="icon-remove_circle" viewBox="0 0 32 32">
<title>remove_circle</title>
<path d="M22.688 17.979v-2.625h-13.375v2.625h13.375zM16 3.354q5.5 0 9.406 3.906t3.906 9.406-3.906 9.406-9.406 3.906-9.406-3.906-3.906-9.406 3.906-9.406 9.406-3.906z"></path>
</symbol>
<symbol id="icon-remove_circle_outline" viewBox="0 0 32 32">
<title>remove_circle_outline</title>
<path d="M16 27.354q4.375 0 7.531-3.156t3.156-7.531-3.156-7.531-7.531-3.156-7.531 3.156-3.156 7.531 3.156 7.531 7.531 3.156zM16 3.354q5.5 0 9.406 3.906t3.906 9.406-3.906 9.406-9.406 3.906-9.406-3.906-3.906-9.406 3.906-9.406 9.406-3.906zM9.313 15.354h13.375v2.625h-13.375v-2.625z"></path>
</symbol>
<symbol id="icon-reply" viewBox="0 0 32 32">
<title>reply</title>
<path d="M13.313 12.667q6.5 0.938 10.031 4.969t4.656 9.719q-4.813-6.813-14.688-6.813v5.438l-9.313-9.313 9.313-9.313v5.313z"></path>
</symbol>
<symbol id="icon-access_time" viewBox="0 0 32 32">
<title>access_time</title>
<path d="M16.688 9.979v7l6 3.563-1 1.688-7-4.25v-8h2zM16 27.354q4.375 0 7.531-3.156t3.156-7.531-3.156-7.531-7.531-3.156-7.531 3.156-3.156 7.531 3.156 7.531 7.531 3.156zM16 3.354q5.5 0 9.406 3.906t3.906 9.406-3.906 9.406-9.406 3.906-9.406-3.906-3.906-9.406 3.906-9.406 9.406-3.906z"></path>
</symbol>
<symbol id="icon-gps_fixed" viewBox="0 0 32 32">
<title>gps_fixed</title>
<path d="M16 25.979q3.875 0 6.594-2.719t2.719-6.594-2.719-6.594-6.594-2.719-6.594 2.719-2.719 6.594 2.719 6.594 6.594 2.719zM27.938 15.354h2.75v2.625h-2.75q-0.438 4.188-3.438 7.188t-7.188 3.438v2.75h-2.625v-2.75q-4.188-0.438-7.188-3.438t-3.438-7.188h-2.75v-2.625h2.75q0.438-4.188 3.438-7.188t7.188-3.438v-2.75h2.625v2.75q4.188 0.438 7.188 3.438t3.438 7.188zM16 11.354q2.188 0 3.75 1.563t1.563 3.75-1.563 3.75-3.75 1.563-3.75-1.563-1.563-3.75 1.563-3.75 3.75-1.563z"></path>
</symbol>
<symbol id="icon-insert_link" viewBox="0 0 32 32">
<title>insert_link</title>
<path d="M22.688 9.979q2.75 0 4.688 1.969t1.938 4.719-1.938 4.719-4.688 1.969h-5.375v-2.563h5.375q1.688 0 2.906-1.219t1.219-2.906-1.219-2.906-2.906-1.219h-5.375v-2.563h5.375zM10.688 17.979v-2.625h10.625v2.625h-10.625zM5.188 16.667q0 1.688 1.219 2.906t2.906 1.219h5.375v2.563h-5.375q-2.75 0-4.688-1.969t-1.938-4.719 1.938-4.719 4.688-1.969h5.375v2.563h-5.375q-1.688 0-2.906 1.219t-1.219 2.906z"></path>
</symbol>
<symbol id="icon-mode_comment" viewBox="0 0 32 32">
<title>mode_comment</title>
<path d="M29.313 5.979v24l-5.313-5.313h-18.688q-1.063 0-1.844-0.813t-0.781-1.875v-16q0-1.063 0.781-1.844t1.844-0.781h21.375q1.063 0 1.844 0.781t0.781 1.844z"></path>
</symbol>
<symbol id="icon-publish" viewBox="0 0 32 32">
<title>publish</title>
<path d="M6.688 19.354l9.313-9.375 9.313 9.375h-5.313v8h-8v-8h-5.313zM6.688 5.979h18.625v2.687h-18.625v-2.688z"></path>
</symbol>
<symbol id="icon-file_download" viewBox="0 0 32 32">
<title>file_download</title>
<path d="M6.688 24.667h18.625v2.688h-18.625v-2.688zM25.313 12.667l-9.313 9.313-9.313-9.313h5.313v-8h8v8h5.313z"></path>
</symbol>
<symbol id="icon-file_upload" viewBox="0 0 32 32">
<title>file_upload</title>
<path d="M6.688 24.667h18.625v2.688h-18.625v-2.688zM12 21.979v-8h-5.313l9.313-9.313 9.313 9.313h-5.313v8h-8z"></path>
</symbol>
<symbol id="icon-keyboard_arrow_down" viewBox="0 0 32 32">
<title>keyboard_arrow_down</title>
<path d="M9.875 11.104l6.125 6.125 6.125-6.125 1.875 1.875-8 8-8-8z"></path>
</symbol>
<symbol id="icon-keyboard_arrow_left" viewBox="0 0 32 32">
<title>keyboard_arrow_left</title>
<path d="M20.563 22.104l-1.875 1.875-8-8 8-8 1.875 1.875-6.125 6.125z"></path>
</symbol>
<symbol id="icon-keyboard_arrow_right" viewBox="0 0 32 32">
<title>keyboard_arrow_right</title>
<path d="M11.438 22.479l6.125-6.125-6.125-6.125 1.875-1.875 8 8-8 8z"></path>
</symbol>
<symbol id="icon-keyboard_arrow_up" viewBox="0 0 32 32">
<title>keyboard_arrow_up</title>
<path d="M9.875 21.229l-1.875-1.875 8-8 8 8-1.875 1.875-6.125-6.125z"></path>
</symbol>
<symbol id="icon-keyboard_backspace" viewBox="0 0 32 32">
<title>keyboard_backspace</title>
<path d="M28 15.354v2.625h-18.875l4.75 4.813-1.875 1.875-8-8 8-8 1.875 1.875-4.75 4.813h18.875z"></path>
</symbol>
<symbol id="icon-dehaze" viewBox="0 0 32 32">
<title>dehaze</title>
<path d="M2.688 7.979h26.625v2.687h-26.625v-2.688zM2.688 14.667h26.625v2.688h-26.625v-2.688zM2.688 21.354h26.625v2.625h-26.625v-2.625z"></path>
</symbol>
<symbol id="icon-navigate_before" viewBox="0 0 32 32">
<title>navigate_before</title>
<path d="M20.563 10.542l-6.125 6.125 6.125 6.125-1.875 1.875-8-8 8-8z"></path>
</symbol>
<symbol id="icon-navigate_next" viewBox="0 0 32 32">
<title>navigate_next</title>
<path d="M13.313 8.667l8 8-8 8-1.875-1.875 6.125-6.125-6.125-6.125z"></path>
</symbol>
<symbol id="icon-local_phone" viewBox="0 0 32 32">
<title>local_phone</title>
<path d="M8.813 15.042q3 5.813 8.813 8.813l2.938-2.938q0.625-0.625 1.375-0.313 2.25 0.75 4.75 0.75 0.563 0 0.938 0.375t0.375 0.938v4.688q0 0.563-0.375 0.938t-0.938 0.375q-9.375 0-16.031-6.656t-6.656-16.031q0-0.563 0.375-0.938t0.938-0.375h4.688q0.563 0 0.938 0.375t0.375 0.938q0 2.5 0.75 4.75 0.25 0.813-0.313 1.375z"></path>
</symbol>
<symbol id="icon-my_location" viewBox="0 0 32 32">
<title>my_location</title>
<path d="M16 25.979q3.875 0 6.594-2.719t2.719-6.594-2.719-6.594-6.594-2.719-6.594 2.719-2.719 6.594 2.719 6.594 6.594 2.719zM27.938 15.354h2.75v2.625h-2.75q-0.438 4.188-3.438 7.188t-7.188 3.438v2.75h-2.625v-2.75q-4.188-0.438-7.188-3.438t-3.438-7.188h-2.75v-2.625h2.75q0.438-4.188 3.438-7.188t7.188-3.438v-2.75h2.625v2.75q4.188 0.438 7.188 3.438t3.438 7.188zM16 11.354q2.188 0 3.75 1.563t1.563 3.75-1.563 3.75-3.75 1.563-3.75-1.563-1.563-3.75 1.563-3.75 3.75-1.563z"></path>
</symbol>
<symbol id="icon-arrow_back" viewBox="0 0 32 32">
<title>arrow_back</title>
<path d="M26.688 15.354v2.625h-16.25l7.438 7.5-1.875 1.875-10.688-10.688 10.688-10.688 1.875 1.875-7.438 7.5h16.25z"></path>
</symbol>
<symbol id="icon-arrow_drop_down" viewBox="0 0 32 32">
<title>arrow_drop_down</title>
<path d="M9.313 13.979h13.375l-6.688 6.688z"></path>
</symbol>
<symbol id="icon-arrow_drop_down_circle" viewBox="0 0 32 32">
<title>arrow_drop_down_circle</title>
<path d="M16 19.354l5.313-5.375h-10.625zM16 3.354q5.5 0 9.406 3.906t3.906 9.406-3.906 9.406-9.406 3.906-9.406-3.906-3.906-9.406 3.906-9.406 9.406-3.906z"></path>
</symbol>
<symbol id="icon-arrow_drop_up" viewBox="0 0 32 32">
<title>arrow_drop_up</title>
<path d="M9.313 19.354l6.688-6.688 6.688 6.688h-13.375z"></path>
</symbol>
<symbol id="icon-arrow_forward" viewBox="0 0 32 32">
<title>arrow_forward</title>
<path d="M16 5.979l10.688 10.688-10.688 10.688-1.875-1.875 7.438-7.5h-16.25v-2.625h16.25l-7.438-7.5z"></path>
</symbol>
<symbol id="icon-cancel" viewBox="0 0 32 32">
<title>cancel</title>
<path d="M22.688 21.479l-4.813-4.813 4.813-4.813-1.875-1.875-4.813 4.813-4.813-4.813-1.875 1.875 4.813 4.813-4.813 4.813 1.875 1.875 4.813-4.813 4.813 4.813zM16 3.354q5.5 0 9.406 3.906t3.906 9.406-3.906 9.406-9.406 3.906-9.406-3.906-3.906-9.406 3.906-9.406 9.406-3.906z"></path>
</symbol>
<symbol id="icon-check" viewBox="0 0 32 32">
<title>check</title>
<path d="M12 22.229l14.125-14.125 1.875 1.875-16 16-7.438-7.438 1.875-1.875z"></path>
</symbol>
<symbol id="icon-chevron_left" viewBox="0 0 32 32">
<title>chevron_left</title>
<path d="M20.563 10.542l-6.125 6.125 6.125 6.125-1.875 1.875-8-8 8-8z"></path>
</symbol>
<symbol id="icon-chevron_right" viewBox="0 0 32 32">
<title>chevron_right</title>
<path d="M13.313 8.667l8 8-8 8-1.875-1.875 6.125-6.125-6.125-6.125z"></path>
</symbol>
<symbol id="icon-expand_less" viewBox="0 0 32 32">
<title>expand_less</title>
<path d="M16 11.354l8 8-1.875 1.875-6.125-6.125-6.125 6.125-1.875-1.875z"></path>
</symbol>
<symbol id="icon-expand_more" viewBox="0 0 32 32">
<title>expand_more</title>
<path d="M22.125 12.104l1.875 1.875-8 8-8-8 1.875-1.875 6.125 6.125z"></path>
</symbol>
<symbol id="icon-fullscreen" viewBox="0 0 32 32">
<title>fullscreen</title>
<path d="M18.688 7.354h6.625v6.625h-2.625v-4h-4v-2.625zM22.688 23.354v-4h2.625v6.625h-6.625v-2.625h4zM6.688 13.979v-6.625h6.625v2.625h-4v4h-2.625zM9.313 19.354v4h4v2.625h-6.625v-6.625h2.625z"></path>
</symbol>
<symbol id="icon-fullscreen_exit" viewBox="0 0 32 32">
<title>fullscreen_exit</title>
<path d="M21.313 11.354h4v2.625h-6.625v-6.625h2.625v4zM18.688 25.979v-6.625h6.625v2.625h-4v4h-2.625zM10.688 11.354v-4h2.625v6.625h-6.625v-2.625h4zM6.688 21.979v-2.625h6.625v6.625h-2.625v-4h-4z"></path>
</symbol>
<symbol id="icon-menu" viewBox="0 0 32 32">
<title>menu</title>
<path d="M4 8.667h24v2.688h-24v-2.688zM4 17.979v-2.625h24v2.625h-24zM4 24.667v-2.688h24v2.688h-24z"></path>
</symbol>
<symbol id="icon-keyboard_control" viewBox="0 0 32 32">
<title>keyboard_control</title>
<path d="M16 13.979q1.063 0 1.875 0.813t0.813 1.875-0.813 1.875-1.875 0.813-1.875-0.813-0.813-1.875 0.813-1.875 1.875-0.813zM24 13.979q1.063 0 1.875 0.813t0.813 1.875-0.813 1.875-1.875 0.813-1.875-0.813-0.813-1.875 0.813-1.875 1.875-0.813zM8 13.979q1.063 0 1.875 0.813t0.813 1.875-0.813 1.875-1.875 0.813-1.875-0.813-0.813-1.875 0.813-1.875 1.875-0.813z"></path>
</symbol>
<symbol id="icon-more_vert" viewBox="0 0 32 32">
<title>more_vert</title>
<path d="M16 21.979q1.063 0 1.875 0.813t0.813 1.875-0.813 1.875-1.875 0.813-1.875-0.813-0.813-1.875 0.813-1.875 1.875-0.813zM16 13.979q1.063 0 1.875 0.813t0.813 1.875-0.813 1.875-1.875 0.813-1.875-0.813-0.813-1.875 0.813-1.875 1.875-0.813zM16 11.354q-1.063 0-1.875-0.813t-0.813-1.875 0.813-1.875 1.875-0.813 1.875 0.813 0.813 1.875-0.813 1.875-1.875 0.813z"></path>
</symbol>
<symbol id="icon-refresh" viewBox="0 0 32 32">
<title>refresh</title>
<path d="M23.563 9.104l3.125-3.125v9.375h-9.375l4.313-4.313q-2.375-2.375-5.625-2.375-3.313 0-5.656 2.344t-2.344 5.656 2.344 5.656 5.656 2.344q2.625 0 4.688-1.469t2.875-3.844h2.75q-0.875 3.5-3.75 5.75t-6.563 2.25q-4.375 0-7.5-3.125t-3.125-7.563 3.125-7.563 7.5-3.125q4.438 0 7.563 3.125z"></path>
</symbol>
<symbol id="icon-unfold_less" viewBox="0 0 32 32">
<title>unfold_less</title>
<path d="M22.125 7.854l-6.125 6.125-6.125-6.125 1.875-1.875 4.25 4.25 4.25-4.25zM9.875 25.479l6.125-6.125 6.125 6.125-1.875 1.875-4.25-4.25-4.25 4.25z"></path>
</symbol>
<symbol id="icon-unfold_more" viewBox="0 0 32 32">
<title>unfold_more</title>
<path d="M16 24.917l4.25-4.25 1.875 1.875-6.125 6.125-6.125-6.125 1.875-1.875zM16 8.417l-4.25 4.25-1.875-1.875 6.125-6.125 6.125 6.125-1.875 1.875z"></path>
</symbol>
<symbol id="icon-group" viewBox="0 0 32 32">
<title>group</title>
<path d="M21.313 17.979q1.75 0 3.813 0.5t3.813 1.625 1.75 2.563v3.313h-8v-3.313q0-2.75-2.625-4.625 0.438-0.063 1.25-0.063zM10.688 17.979q1.75 0 3.813 0.5t3.781 1.625 1.719 2.563v3.313h-18.688v-3.313q0-1.438 1.75-2.563t3.813-1.625 3.813-0.5zM10.688 15.354q-1.625 0-2.813-1.188t-1.188-2.813 1.188-2.813 2.813-1.188 2.781 1.188 1.156 2.813-1.156 2.813-2.781 1.188zM21.313 15.354q-1.625 0-2.813-1.188t-1.188-2.813 1.188-2.813 2.813-1.188 2.813 1.188 1.188 2.813-1.188 2.813-2.813 1.188z"></path>
</symbol>
<symbol id="icon-group_add" viewBox="0 0 32 32">
<title>group_add</title>
<path d="M17.313 17.979q2.5 0 5.25 1.094t2.75 2.906v2.688h-16v-2.688q0-1.813 2.75-2.906t5.25-1.094zM26.188 18.229q2.313 0.375 4.063 1.344t1.75 2.406v2.688h-4v-2.688q0-2.125-1.813-3.75zM17.313 15.354q-1.625 0-2.813-1.188t-1.188-2.813 1.188-2.813 2.813-1.188 2.813 1.188 1.188 2.813-1.188 2.813-2.813 1.188zM24 15.354q-0.625 0-1.188-0.188 1.188-1.688 1.188-3.813t-1.188-3.813q0.563-0.188 1.188-0.188 1.625 0 2.813 1.188t1.188 2.813-1.188 2.813-2.813 1.188zM10.688 13.979v2.688h-4v4h-2.688v-4h-4v-2.688h4v-4h2.688v4h4z"></path>
</symbol>
<symbol id="icon-people" viewBox="0 0 32 32">
<title>people</title>
<path d="M21.313 17.979q1.75 0 3.813 0.5t3.813 1.625 1.75 2.563v3.313h-8v-3.313q0-2.75-2.625-4.625 0.438-0.063 1.25-0.063zM10.688 17.979q1.75 0 3.813 0.5t3.781 1.625 1.719 2.563v3.313h-18.688v-3.313q0-1.438 1.75-2.563t3.813-1.625 3.813-0.5zM10.688 15.354q-1.625 0-2.813-1.188t-1.188-2.813 1.188-2.813 2.813-1.188 2.781 1.188 1.156 2.813-1.156 2.813-2.781 1.188zM21.313 15.354q-1.625 0-2.813-1.188t-1.188-2.813 1.188-2.813 2.813-1.188 2.813 1.188 1.188 2.813-1.188 2.813-2.813 1.188z"></path>
</symbol>
<symbol id="icon-people_outline" viewBox="0 0 32 32">
<title>people_outline</title>
<path d="M22 9.354q-1.063 0-1.875 0.781t-0.813 1.844 0.813 1.875 1.875 0.813 1.875-0.813 0.813-1.875-0.813-1.844-1.875-0.781zM22 16.667q-1.938 0-3.313-1.375t-1.375-3.313 1.375-3.281 3.313-1.344 3.313 1.344 1.375 3.281-1.375 3.313-3.313 1.375zM10 9.354q-1.063 0-1.875 0.781t-0.813 1.844 0.813 1.875 1.875 0.813 1.875-0.813 0.813-1.875-0.813-1.844-1.875-0.781zM10 16.667q-1.938 0-3.313-1.375t-1.375-3.313 1.375-3.281 3.313-1.344 3.313 1.344 1.375 3.281-1.375 3.313-3.313 1.375zM28.688 23.979v-1.625q0-0.625-2.219-1.5t-4.469-0.875q-1.625 0-4 0.75 0.688 0.813 0.688 1.625v1.625h10zM16.688 23.979v-1.625q0-0.625-2.219-1.5t-4.469-0.875-4.469 0.875-2.219 1.5v1.625h13.375zM22 17.979q2.688 0 5.688 1.219t3 3.156v3.625h-29.375v-3.625q0-1.938 3-3.156t5.688-1.219q2.938 0 6 1.375 3.063-1.375 6-1.375z"></path>
</symbol>
<symbol id="icon-person" viewBox="0 0 32 32">
<title>person</title>
<path d="M16 19.354q3.375 0 7.031 1.469t3.656 3.844v2.688h-21.375v-2.688q0-2.375 3.656-3.844t7.031-1.469zM16 16.667q-2.188 0-3.75-1.563t-1.563-3.75 1.563-3.781 3.75-1.594 3.75 1.594 1.563 3.781-1.563 3.75-3.75 1.563z"></path>
</symbol>
<symbol id="icon-person_add" viewBox="0 0 32 32">
<title>person_add</title>
<path d="M20 19.354q3.375 0 7.031 1.469t3.656 3.844v2.688h-21.375v-2.688q0-2.375 3.656-3.844t7.031-1.469zM8 13.979h4v2.688h-4v4h-2.688v-4h-4v-2.688h4v-4h2.688v4zM20 16.667q-2.188 0-3.75-1.563t-1.563-3.75 1.563-3.781 3.75-1.594 3.75 1.594 1.563 3.781-1.563 3.75-3.75 1.563z"></path>
</symbol>
<symbol id="icon-person_outline" viewBox="0 0 32 32">
<title>person_outline</title>
<path d="M16 17.979q2 0 4.375 0.563t4.344 1.875 1.969 2.938v4h-21.375v-4q0-1.625 1.969-2.938t4.344-1.875 4.375-0.563zM16 5.979q2.188 0 3.75 1.594t1.563 3.781-1.563 3.75-3.75 1.563-3.75-1.563-1.563-3.75 1.563-3.781 3.75-1.594zM16 20.542q-2.75 0-5.438 1.031t-2.688 1.781v1.438h16.25v-1.438q0-0.75-2.688-1.781t-5.438-1.031zM16 8.542q-1.188 0-2 0.813t-0.813 2 0.813 1.969 2 0.781 2-0.781 0.813-1.969-0.813-2-2-0.813z"></path>
</symbol>
<symbol id="icon-share" viewBox="0 0 32 32">
<title>share</title>
<path d="M24 22.104q1.625 0 2.75 1.156t1.125 2.719q0 1.625-1.156 2.781t-2.719 1.156-2.719-1.156-1.156-2.781q0-0.625 0.063-0.875l-9.438-5.5q-1.188 1.063-2.75 1.063-1.625 0-2.813-1.188t-1.188-2.813 1.188-2.813 2.813-1.188q1.563 0 2.75 1.063l9.375-5.438q-0.125-0.625-0.125-0.938 0-1.625 1.188-2.813t2.813-1.188 2.813 1.188 1.188 2.813-1.188 2.813-2.813 1.188q-1.5 0-2.75-1.125l-9.375 5.5q0.125 0.625 0.125 0.938t-0.125 0.938l9.5 5.5q1.125-1 2.625-1z"></path>
</symbol>
<symbol id="icon-done" viewBox="0 0 32 32">
<title>done</title>
<path d="M12 22.292l14.125-14.188 1.875 1.875-16 16-7.438-7.438 1.813-1.875z"></path>
</symbol>
<symbol id="icon-favorite" viewBox="0 0 32 32">
<title>favorite</title>
<path d="M16 29.104l-1.938-1.75q-3.313-3-4.813-4.438t-3.344-3.563-2.531-3.844-0.688-3.531q0-3.063 2.094-5.188t5.219-2.125q3.625 0 6 2.813 2.375-2.813 6-2.813 3.125 0 5.219 2.125t2.094 5.188q0 2.438-1.625 5.063t-3.531 4.563-6.219 5.813z"></path>
</symbol>
<symbol id="icon-favorite_outline" viewBox="0 0 32 32">
<title>favorite_outline</title>
<path d="M16.125 25.417q3-2.688 4.438-4.063t3.125-3.25 2.344-3.313 0.656-2.813q0-2-1.344-3.313t-3.344-1.313q-1.563 0-2.906 0.875t-1.844 2.25h-2.5q-0.5-1.375-1.844-2.25t-2.906-0.875q-2 0-3.344 1.313t-1.344 3.313q0 1.375 0.656 2.813t2.344 3.313 3.125 3.25 4.438 4.063l0.125 0.125zM22 4.667q3.125 0 5.219 2.125t2.094 5.187q0 1.813-0.688 3.531t-2.531 3.844-3.344 3.563-4.813 4.438l-1.938 1.75-1.938-1.688q-4.313-3.875-6.219-5.813t-3.531-4.563-1.625-5.063q0-3.063 2.094-5.188t5.219-2.125q3.625 0 6 2.813 2.375-2.813 6-2.813z"></path>
</symbol>
<symbol id="icon-get_app" viewBox="0 0 32 32">
<title>get_app</title>
<path d="M6.688 24.667h18.625v2.688h-18.625v-2.688zM25.313 12.667l-9.313 9.313-9.313-9.313h5.313v-8h8v8h5.313z"></path>
</symbol>
<symbol id="icon-history" viewBox="0 0 32 32">
<title>history</title>
<path d="M16 11.354h2v5.625l4.688 2.813-1 1.625-5.688-3.438v-6.625zM17.313 4.667q4.938 0 8.469 3.5t3.531 8.5-3.531 8.5-8.469 3.5-8.438-3.5l1.875-1.938q2.75 2.75 6.563 2.75 3.875 0 6.625-2.719t2.75-6.594-2.75-6.594-6.625-2.719-6.594 2.719-2.719 6.594h4l-5.375 5.375-0.125-0.188-5.188-5.188h4q0-5 3.531-8.5t8.469-3.5z"></path>
</symbol>
<symbol id="icon-shopping_basket" viewBox="0 0 32 32">
<title>shopping_basket</title>
<path d="M16 23.354q1.063 0 1.875-0.813t0.813-1.875-0.813-1.875-1.875-0.813-1.875 0.813-0.813 1.875 0.813 1.875 1.875 0.813zM12 12.667h8l-4-5.875zM22.938 12.667h6.375q0.563 0 0.969 0.375t0.406 0.938q-0.625 2.5-1.875 7.031t-1.563 5.719q-0.563 1.938-2.563 1.938h-17.375q-2 0-2.563-1.938l-3.375-12.375q-0.063-0.125-0.063-0.375 0-0.563 0.406-0.938t0.969-0.375h6.375l5.813-8.75q0.375-0.563 1.125-0.563t1.125 0.563z"></path>
</symbol>
<symbol id="icon-music" viewBox="0 0 32 32">
<title>music</title>
<path d="M27.429 4.286v20q0 0.893-0.607 1.589t-1.536 1.080-1.848 0.571-1.723 0.188-1.723-0.188-1.848-0.571-1.536-1.080-0.607-1.589 0.607-1.589 1.536-1.080 1.848-0.571 1.723-0.188q1.875 0 3.429 0.696v-9.589l-13.714 4.232v12.661q0 0.893-0.607 1.589t-1.536 1.080-1.848 0.571-1.723 0.188-1.723-0.188-1.848-0.571-1.536-1.080-0.607-1.589 0.607-1.589 1.536-1.080 1.848-0.571 1.723-0.188q1.875 0 3.429 0.696v-17.268q0-0.554 0.339-1.009t0.875-0.634l14.857-4.571q0.214-0.071 0.5-0.071 0.714 0 1.214 0.5t0.5 1.214z"></path>
</symbol>
<symbol id="icon-search2" viewBox="0 0 30 32">
<title>search2</title>
<path d="M20.571 15.143q0-3.304-2.348-5.652t-5.652-2.348-5.652 2.348-2.348 5.652 2.348 5.652 5.652 2.348 5.652-2.348 2.348-5.652zM29.714 30q0 0.929-0.679 1.607t-1.607 0.679q-0.964 0-1.607-0.679l-6.125-6.107q-3.196 2.214-7.125 2.214-2.554 0-4.884-0.991t-4.018-2.679-2.679-4.018-0.991-4.884 0.991-4.884 2.679-4.018 4.018-2.679 4.884-0.991 4.884 0.991 4.018 2.679 2.679 4.018 0.991 4.884q0 3.929-2.214 7.125l6.125 6.125q0.661 0.661 0.661 1.607z"></path>
</symbol>
<symbol id="icon-trash-o" viewBox="0 0 25 32">
<title>trash-o</title>
<path d="M9.143 13.429v10.286q0 0.25-0.161 0.411t-0.411 0.161h-1.143q-0.25 0-0.411-0.161t-0.161-0.411v-10.286q0-0.25 0.161-0.411t0.411-0.161h1.143q0.25 0 0.411 0.161t0.161 0.411zM13.714 13.429v10.286q0 0.25-0.161 0.411t-0.411 0.161h-1.143q-0.25 0-0.411-0.161t-0.161-0.411v-10.286q0-0.25 0.161-0.411t0.411-0.161h1.143q0.25 0 0.411 0.161t0.161 0.411zM18.286 13.429v10.286q0 0.25-0.161 0.411t-0.411 0.161h-1.143q-0.25 0-0.411-0.161t-0.161-0.411v-10.286q0-0.25 0.161-0.411t0.411-0.161h1.143q0.25 0 0.411 0.161t0.161 0.411zM20.571 26.357v-16.929h-16v16.929q0 0.393 0.125 0.723t0.259 0.482 0.188 0.152h14.857q0.054 0 0.188-0.152t0.259-0.482 0.125-0.723zM8.571 7.143h8l-0.857-2.089q-0.125-0.161-0.304-0.196h-5.661q-0.179 0.036-0.304 0.196zM25.143 7.714v1.143q0 0.25-0.161 0.411t-0.411 0.161h-1.714v16.929q0 1.482-0.839 2.563t-2.018 1.080h-14.857q-1.179 0-2.018-1.045t-0.839-2.527v-17h-1.714q-0.25 0-0.411-0.161t-0.161-0.411v-1.143q0-0.25 0.161-0.411t0.411-0.161h5.518l1.25-2.982q0.268-0.661 0.964-1.125t1.411-0.464h5.714q0.714 0 1.411 0.464t0.964 1.125l1.25 2.982h5.518q0.25 0 0.411 0.161t0.161 0.411z"></path>
</symbol>
<symbol id="icon-instagram" viewBox="0 0 32 32">
<title>instagram</title>
<path d="M16.571 15.143q0-0.25-0.161-0.411t-0.411-0.161q-1.179 0-2.018 0.839t-0.839 2.018q0 0.25 0.161 0.411t0.411 0.161 0.411-0.161 0.161-0.411q0-0.714 0.5-1.214t1.214-0.5q0.25 0 0.411-0.161t0.161-0.411zM20.571 17.464q0 1.893-1.339 3.232t-3.232 1.339-3.232-1.339-1.339-3.232 1.339-3.232 3.232-1.339 3.232 1.339 1.339 3.232zM2.286 27.714h27.429v-2.286h-27.429v2.286zM22.857 17.464q0-2.839-2.009-4.848t-4.848-2.009-4.848 2.009-2.009 4.848 2.009 4.848 4.848 2.009 4.848-2.009 2.009-4.848zM4.571 6h6.857v-2.286h-6.857v2.286zM2.286 9.429h27.429v-4.571h-14.786l-1.143 2.286h-11.5v2.286zM32 4.857v22.857q0 0.946-0.67 1.616t-1.616 0.67h-27.429q-0.946 0-1.616-0.67t-0.67-1.616v-22.857q0-0.946 0.67-1.616t1.616-0.67h27.429q0.946 0 1.616 0.67t0.67 1.616z"></path>
</symbol>
<symbol id="icon-twitter" viewBox="0 0 30 32">
<title>twitter</title>
<path d="M28.929 7.571q-1.196 1.75-2.893 2.982 0.018 0.25 0.018 0.75 0 2.321-0.679 4.634t-2.063 4.437-3.295 3.759-4.607 2.607-5.768 0.973q-4.839 0-8.857-2.589 0.625 0.071 1.393 0.071 4.018 0 7.161-2.464-1.875-0.036-3.357-1.152t-2.036-2.848q0.589 0.089 1.089 0.089 0.768 0 1.518-0.196-2-0.411-3.313-1.991t-1.313-3.67v-0.071q1.214 0.679 2.607 0.732-1.179-0.786-1.875-2.054t-0.696-2.75q0-1.571 0.786-2.911 2.161 2.661 5.259 4.259t6.634 1.777q-0.143-0.679-0.143-1.321 0-2.393 1.688-4.080t4.080-1.688q2.5 0 4.214 1.821 1.946-0.375 3.661-1.393-0.661 2.054-2.536 3.179 1.661-0.179 3.321-0.893z"></path>
</symbol>
<symbol id="icon-facebook" viewBox="0 0 18 32">
<title>facebook</title>
<path d="M17.125 0.5v4.714h-2.804q-1.536 0-2.071 0.643t-0.536 1.929v3.375h5.232l-0.696 5.286h-4.536v13.554h-5.464v-13.554h-4.554v-5.286h4.554v-3.893q0-3.321 1.857-5.152t4.946-1.83q2.625 0 4.071 0.214z"></path>
</symbol>
<symbol id="icon-globe" viewBox="0 0 32 32">
<title>globe</title>
<path d="M13.714 2.571q3.732 0 6.884 1.839t4.991 4.991 1.839 6.884-1.839 6.884-4.991 4.991-6.884 1.839-6.884-1.839-4.991-4.991-1.839-6.884 1.839-6.884 4.991-4.991 6.884-1.839zM18.607 11.875q-0.036 0.018-0.17 0.17t-0.241 0.17q0.036 0 0.080-0.089t0.089-0.196 0.063-0.125q0.107-0.125 0.393-0.268 0.25-0.107 0.929-0.214 0.607-0.143 0.911 0.196-0.036-0.036 0.17-0.232t0.259-0.214q0.054-0.036 0.268-0.080t0.268-0.134l0.036-0.393q-0.214 0.018-0.313-0.125t-0.116-0.375q0 0.036-0.107 0.143 0-0.125-0.080-0.143t-0.205 0.018-0.161 0.018q-0.179-0.054-0.268-0.134t-0.143-0.295-0.071-0.268q-0.036-0.089-0.17-0.188t-0.17-0.188q-0.018-0.036-0.045-0.098t-0.054-0.116-0.071-0.098-0.098-0.045-0.125 0.089-0.134 0.179-0.080 0.089q-0.054-0.036-0.107-0.027t-0.080 0.018-0.080 0.054-0.089 0.063q-0.054 0.036-0.152 0.054t-0.152 0.036q0.268-0.089-0.018-0.196-0.179-0.071-0.286-0.054 0.161-0.071 0.134-0.214t-0.152-0.25h0.089q-0.018-0.071-0.152-0.152t-0.313-0.152-0.232-0.107q-0.143-0.089-0.607-0.17t-0.589-0.009q-0.089 0.107-0.080 0.188t0.071 0.25 0.063 0.223q0.018 0.107-0.098 0.232t-0.116 0.214q0 0.125 0.25 0.277t0.179 0.384q-0.054 0.143-0.286 0.286t-0.286 0.214q-0.089 0.143-0.027 0.33t0.188 0.295q0.036 0.036 0.027 0.071t-0.063 0.080-0.098 0.071-0.116 0.063l-0.054 0.036q-0.196 0.089-0.366-0.107t-0.241-0.464q-0.125-0.446-0.286-0.536-0.411-0.143-0.518 0.018-0.089-0.232-0.732-0.464-0.446-0.161-1.036-0.071 0.107-0.018 0-0.268-0.125-0.268-0.339-0.214 0.054-0.107 0.071-0.313t0.018-0.241q0.054-0.232 0.214-0.411 0.018-0.018 0.125-0.152t0.17-0.241 0.009-0.107q0.625 0.071 0.893-0.196 0.089-0.089 0.205-0.304t0.188-0.304q0.161-0.107 0.25-0.098t0.259 0.098 0.259 0.089q0.25 0.018 0.277-0.196t-0.134-0.357q0.214 0.018 0.054-0.304-0.089-0.125-0.143-0.161-0.214-0.071-0.482 0.089-0.143 0.071 0.036 0.143-0.018-0.018-0.17 0.188t-0.295 0.313-0.286-0.089q-0.018-0.018-0.098-0.241t-0.17-0.241q-0.143 0-0.286 0.268 0.054-0.143-0.196-0.268t-0.429-0.143q0.339-0.214-0.143-0.482-0.125-0.071-0.366-0.089t-0.348 0.071q-0.089 0.125-0.098 0.205t0.089 0.143 0.188 0.098 0.205 0.071 0.152 0.054q0.25 0.179 0.143 0.25-0.036 0.018-0.152 0.063t-0.205 0.080-0.107 0.071q-0.054 0.071 0 0.25t-0.036 0.25q-0.089-0.089-0.161-0.313t-0.125-0.295q0.125 0.161-0.446 0.107l-0.179-0.018q-0.071 0-0.286 0.036t-0.366 0.018-0.241-0.143q-0.071-0.143 0-0.357 0.018-0.071 0.071-0.036-0.071-0.054-0.196-0.17t-0.179-0.152q-0.821 0.268-1.679 0.732 0.107 0.018 0.214-0.018 0.089-0.036 0.232-0.116t0.179-0.098q0.607-0.25 0.75-0.125l0.089-0.089q0.25 0.286 0.357 0.446-0.125-0.071-0.536-0.018-0.357 0.107-0.393 0.214 0.125 0.214 0.089 0.321-0.071-0.054-0.205-0.179t-0.259-0.196-0.268-0.089q-0.286 0-0.393 0.018-2.607 1.429-4.196 3.964 0.125 0.125 0.214 0.143 0.071 0.018 0.089 0.161t0.045 0.196 0.205-0.054q0.161 0.143 0.054 0.339 0.018-0.018 0.786 0.482 0.339 0.304 0.375 0.375 0.054 0.196-0.179 0.321-0.018-0.036-0.161-0.161t-0.161-0.071q-0.054 0.089 0.009 0.33t0.188 0.223q-0.125 0-0.17 0.286t-0.045 0.634-0.018 0.42l0.036 0.018q-0.054 0.214 0.098 0.616t0.384 0.348q-0.232 0.054 0.357 0.768 0.107 0.143 0.143 0.161 0.054 0.036 0.214 0.134t0.268 0.179 0.179 0.188q0.071 0.089 0.179 0.402t0.25 0.42q-0.036 0.107 0.17 0.357t0.188 0.411q-0.018 0-0.045 0.018t-0.045 0.018q0.054 0.125 0.277 0.25t0.277 0.232q0.018 0.054 0.036 0.179t0.054 0.196 0.143 0.036q0.036-0.357-0.429-1.107-0.268-0.446-0.304-0.518-0.054-0.089-0.098-0.277t-0.080-0.259q0.036 0 0.107 0.027t0.152 0.063 0.134 0.071 0.036 0.054q-0.054 0.125 0.036 0.313t0.214 0.33 0.304 0.339 0.214 0.232q0.107 0.107 0.25 0.348t0 0.241q0.161 0 0.357 0.179t0.304 0.357q0.089 0.143 0.143 0.464t0.089 0.429q0.036 0.125 0.152 0.241t0.223 0.17l0.286 0.143t0.232 0.125q0.089 0.036 0.33 0.188t0.384 0.205q0.179 0.071 0.286 0.071t0.259-0.045 0.241-0.063q0.268-0.036 0.518 0.268t0.375 0.375q0.643 0.339 0.982 0.196-0.036 0.018 0.009 0.134t0.143 0.277 0.161 0.259 0.098 0.152q0.089 0.107 0.321 0.268t0.321 0.268q0.107-0.071 0.125-0.161-0.054 0.143 0.125 0.357t0.321 0.179q0.25-0.054 0.25-0.571-0.554 0.268-0.875-0.321 0-0.018-0.045-0.098t-0.071-0.152-0.045-0.152 0-0.134 0.089-0.054q0.161 0 0.179-0.063t-0.036-0.223-0.071-0.232q-0.018-0.143-0.196-0.357t-0.214-0.268q-0.089 0.161-0.286 0.143t-0.286-0.161q0 0.018-0.027 0.098t-0.027 0.116q-0.232 0-0.268-0.018 0.018-0.054 0.045-0.313t0.063-0.402q0.018-0.071 0.098-0.214t0.134-0.259 0.071-0.223-0.080-0.17-0.313-0.045q-0.339 0.018-0.464 0.357-0.018 0.054-0.054 0.188t-0.089 0.205-0.161 0.125q-0.125 0.054-0.429 0.036t-0.429-0.089q-0.232-0.143-0.402-0.518t-0.17-0.661q0-0.179 0.045-0.473t0.054-0.446-0.098-0.438q0.054-0.036 0.161-0.17t0.179-0.188q0.036-0.018 0.080-0.027t0.080 0 0.071-0.027 0.054-0.107q-0.018-0.018-0.071-0.054-0.054-0.054-0.071-0.054 0.125 0.054 0.509-0.027t0.491 0.027q0.268 0.196 0.393-0.036 0-0.018-0.045-0.17t-0.009-0.241q0.089 0.482 0.518 0.161 0.054 0.054 0.277 0.089t0.313 0.089q0.054 0.036 0.125 0.098t0.098 0.080 0.089-0.009 0.152-0.116q0.179 0.25 0.214 0.429 0.196 0.714 0.339 0.786 0.125 0.054 0.196 0.036t0.080-0.17 0-0.25-0.027-0.223l-0.018-0.143v-0.321l-0.018-0.143q-0.268-0.054-0.33-0.214t0.027-0.33 0.268-0.33q0.018-0.018 0.143-0.063t0.277-0.116 0.223-0.143q0.375-0.339 0.268-0.625 0.125 0 0.196-0.161-0.018 0-0.089-0.054t-0.134-0.089-0.080-0.036q0.161-0.089 0.036-0.286 0.089-0.054 0.134-0.196t0.134-0.179q0.161 0.214 0.375 0.036 0.125-0.143 0.018-0.286 0.089-0.125 0.366-0.188t0.33-0.17q0.125 0.036 0.143-0.036t0.018-0.214 0.054-0.214q0.071-0.089 0.268-0.161t0.232-0.089l0.304-0.196q0.054-0.071 0-0.071 0.321 0.036 0.554-0.196 0.179-0.196-0.107-0.357 0.054-0.107-0.054-0.17t-0.268-0.098q0.054-0.018 0.205-0.009t0.188-0.027q0.268-0.179-0.125-0.286-0.304-0.089-0.768 0.214zM15.696 27.536q3.679-0.643 6.268-3.375-0.054-0.054-0.223-0.080t-0.223-0.063q-0.321-0.125-0.429-0.143 0.018-0.125-0.045-0.232t-0.143-0.161-0.223-0.143-0.196-0.125q-0.036-0.036-0.125-0.107t-0.125-0.098-0.134-0.080-0.152-0.036-0.179 0.018l-0.054 0.018q-0.054 0.018-0.098 0.045t-0.098 0.054-0.071 0.054 0 0.045q-0.375-0.304-0.643-0.393-0.089-0.018-0.196-0.098t-0.188-0.125-0.179-0.027-0.205 0.125q-0.089 0.089-0.107 0.268t-0.036 0.232q-0.125-0.089 0-0.313t0.036-0.33q-0.054-0.107-0.188-0.080t-0.214 0.080-0.205 0.152-0.161 0.116-0.152 0.098-0.152 0.134q-0.054 0.071-0.107 0.214t-0.089 0.196q-0.036-0.071-0.205-0.116t-0.17-0.098q0.036 0.179 0.071 0.625t0.089 0.679q0.125 0.554-0.214 0.857-0.482 0.446-0.518 0.714-0.071 0.393 0.214 0.464 0 0.125-0.143 0.366t-0.125 0.384q0 0.107 0.036 0.286z"></path>
</symbol>
<symbol id="icon-calendar-o" viewBox="0 0 30 32">
<title>calendar-o</title>
<path d="M2.286 30h25.143v-18.286h-25.143v18.286zM9.143 8.286v-5.143q0-0.25-0.161-0.411t-0.411-0.161h-1.143q-0.25 0-0.411 0.161t-0.161 0.411v5.143q0 0.25 0.161 0.411t0.411 0.161h1.143q0.25 0 0.411-0.161t0.161-0.411zM22.857 8.286v-5.143q0-0.25-0.161-0.411t-0.411-0.161h-1.143q-0.25 0-0.411 0.161t-0.161 0.411v5.143q0 0.25 0.161 0.411t0.411 0.161h1.143q0.25 0 0.411-0.161t0.161-0.411zM29.714 7.143v22.857q0 0.929-0.679 1.607t-1.607 0.679h-25.143q-0.929 0-1.607-0.679t-0.679-1.607v-22.857q0-0.929 0.679-1.607t1.607-0.679h2.286v-1.714q0-1.179 0.839-2.018t2.018-0.839h1.143q1.179 0 2.018 0.839t0.839 2.018v1.714h6.857v-1.714q0-1.179 0.839-2.018t2.018-0.839h1.143q1.179 0 2.018 0.839t0.839 2.018v1.714h2.286q0.929 0 1.607 0.679t0.679 1.607z"></path>
</symbol>
<symbol id="icon-youtube" viewBox="0 0 32 32">
<title>youtube</title>
<path d="M22.857 16.286q0-0.661-0.536-0.964l-9.143-5.714q-0.554-0.357-1.161-0.036-0.589 0.321-0.589 1v11.429q0 0.679 0.589 1 0.286 0.143 0.554 0.143 0.357 0 0.607-0.179l9.143-5.714q0.536-0.304 0.536-0.964zM32 16.286q0 1.714-0.018 2.679t-0.152 2.438-0.402 2.634q-0.286 1.304-1.232 2.196t-2.214 1.036q-3.964 0.446-11.982 0.446t-11.982-0.446q-1.268-0.143-2.223-1.036t-1.241-2.196q-0.25-1.161-0.384-2.634t-0.152-2.438-0.018-2.679 0.018-2.679 0.152-2.438 0.402-2.634q0.286-1.304 1.232-2.196t2.214-1.036q3.964-0.446 11.982-0.446t11.982 0.446q1.268 0.143 2.223 1.036t1.241 2.196q0.25 1.161 0.384 2.634t0.152 2.438 0.018 2.679z"></path>
</symbol>
<symbol id="icon-soundcloud" viewBox="0 0 41 32">
<title>soundcloud</title>
<path d="M14 24.786l0.286-4.304-0.286-9.339q-0.018-0.179-0.134-0.304t-0.295-0.125q-0.161 0-0.286 0.125t-0.125 0.304l-0.25 9.339 0.25 4.304q0.018 0.179 0.134 0.295t0.277 0.116q0.393 0 0.429-0.411zM19.286 24.268l0.196-3.768-0.214-10.464q0-0.286-0.232-0.429-0.143-0.089-0.286-0.089t-0.286 0.089q-0.232 0.143-0.232 0.429l-0.018 0.107-0.179 10.339q0 0.018 0.196 4.214v0.018q0 0.179 0.107 0.304 0.161 0.196 0.411 0.196 0.196 0 0.357-0.161 0.161-0.125 0.161-0.357zM0.625 18.196l0.357 2.286-0.357 2.25q-0.036 0.161-0.161 0.161t-0.161-0.161l-0.304-2.25 0.304-2.286q0.036-0.161 0.161-0.161t0.161 0.161zM2.161 16.786l0.464 3.696-0.464 3.625q-0.036 0.161-0.179 0.161-0.161 0-0.161-0.179l-0.411-3.607 0.411-3.696q0-0.161 0.161-0.161 0.143 0 0.179 0.161zM3.804 16.107l0.446 4.375-0.446 4.232q0 0.196-0.196 0.196-0.179 0-0.214-0.196l-0.375-4.232 0.375-4.375q0.036-0.214 0.214-0.214 0.196 0 0.196 0.214zM5.482 15.982l0.411 4.5-0.411 4.357q-0.036 0.232-0.25 0.232-0.232 0-0.232-0.232l-0.375-4.357 0.375-4.5q0-0.232 0.232-0.232 0.214 0 0.25 0.232zM7.161 16.304l0.375 4.179-0.375 4.393q-0.036 0.286-0.286 0.286-0.107 0-0.188-0.080t-0.080-0.205l-0.357-4.393 0.357-4.179q0-0.107 0.080-0.188t0.188-0.080q0.25 0 0.286 0.268zM8.839 13.696l0.375 6.786-0.375 4.393q0 0.125-0.089 0.223t-0.214 0.098q-0.286 0-0.321-0.321l-0.321-4.393 0.321-6.786q0.036-0.321 0.321-0.321 0.125 0 0.214 0.098t0.089 0.223zM10.518 12.161l0.339 8.357-0.339 4.357q0 0.143-0.098 0.241t-0.241 0.098q-0.321 0-0.357-0.339l-0.286-4.357 0.286-8.357q0.036-0.339 0.357-0.339 0.143 0 0.241 0.098t0.098 0.241zM12.268 11.446l0.321 9.036-0.321 4.321q-0.036 0.375-0.393 0.375-0.339 0-0.375-0.375l-0.286-4.321 0.286-9.036q0-0.161 0.116-0.277t0.259-0.116q0.161 0 0.268 0.116t0.125 0.277zM19.268 24.696v0 0zM15.732 11.375l0.268 9.107-0.268 4.268q0 0.179-0.134 0.313t-0.313 0.134-0.304-0.125-0.143-0.321l-0.25-4.268 0.25-9.107q0-0.196 0.134-0.321t0.313-0.125 0.313 0.125 0.134 0.321zM17.5 11.714l0.25 8.786-0.25 4.214q0 0.196-0.143 0.339t-0.339 0.143-0.339-0.143-0.161-0.339l-0.214-4.214 0.214-8.786q0.018-0.214 0.161-0.357t0.339-0.143 0.33 0.143 0.152 0.357zM21.286 20.5l-0.25 4.125q0 0.232-0.161 0.393t-0.393 0.161-0.393-0.161-0.179-0.393l-0.107-2.036-0.107-2.089 0.214-11.357v-0.054q0.036-0.268 0.214-0.429 0.161-0.125 0.357-0.125 0.143 0 0.268 0.089 0.25 0.143 0.286 0.464zM41.143 20.161q0 2.089-1.482 3.563t-3.571 1.473h-14.036q-0.232-0.036-0.393-0.196t-0.161-0.393v-16.054q0-0.411 0.5-0.589 1.518-0.607 3.232-0.607 3.482 0 6.036 2.348t2.857 5.777q0.946-0.393 1.964-0.393 2.089 0 3.571 1.482t1.482 3.589z"></path>
</symbol>
<symbol id="icon-paypal" viewBox="0 0 32 32">
<title>paypal</title>
<path d="M19.857 8.25q0-2.839-4.232-2.839h-1.25q-0.571 0-1.063 0.384t-0.616 0.938l-1.125 4.929q-0.036 0.089-0.036 0.286 0 0.429 0.304 0.705t0.732 0.277h0.946q1.232 0 2.295-0.232t2.009-0.732 1.491-1.455 0.545-2.259zM30.643 10.964q0 4.732-3.929 7.643-3.911 2.875-10.929 2.875h-1.089q-0.571 0-1.054 0.384t-0.607 0.938l-1.304 5.643q-0.143 0.643-0.723 1.098t-1.241 0.455h-3.804q-0.554 0-0.946-0.357t-0.393-0.911q0-0.179 0.232-1.161h2.696q0.607 0 1.143-0.42t0.679-1.009l1.304-5.643q0.143-0.589 0.67-1.018t1.134-0.429h1.089q6.964 0 10.839-2.857t3.875-7.518q0-2.304-0.911-3.696 3.268 1.643 3.268 5.982zM27.375 7.661q0 4.714-3.946 7.643-3.893 2.875-10.929 2.875h-1.071q-0.571 0-1.063 0.393t-0.616 0.946l-1.304 5.625q-0.143 0.643-0.714 1.098t-1.232 0.455h-3.821q-0.554 0-0.938-0.348t-0.384-0.92q0-0.143 0.036-0.357l5.357-23.232q0.143-0.643 0.723-1.098t1.241-0.455h7.929q1.214 0 2.232 0.071t2.152 0.268 2.027 0.536 1.723 0.902 1.384 1.321 0.884 1.848 0.33 2.429z"></path>
</symbol>
<symbol id="icon-cc-visa" viewBox="0 0 41 32">
<title>cc-visa</title>
<path d="M35.268 17.964h-2.464q0.25-0.661 1.179-3.196l0.054-0.161q0.071-0.179 0.179-0.464t0.161-0.464l0.214 0.982zM9.482 16.804l-1.036-5.268q-0.196-0.964-1.339-0.964h-4.786l-0.036 0.232q5.554 1.411 7.196 6zM12.679 10.571l-2.893 7.821-0.304-1.589q-0.464-1.25-1.518-2.313t-2.339-1.58l2.411 9.107h3.125l4.661-11.446h-3.143zM15.161 22.036h2.964l1.857-11.464h-2.964zM28.875 10.857q-1.232-0.482-2.661-0.482-2.196 0-3.589 1.054t-1.411 2.732q-0.018 1.821 2.589 3.107 0.857 0.411 1.196 0.732t0.339 0.696q0 0.536-0.536 0.821t-1.232 0.286q-1.536 0-2.786-0.589l-0.393-0.196-0.411 2.571q1.321 0.607 3.304 0.607 2.321 0.018 3.723-1.054t1.438-2.857q0-1.893-2.5-3.107-0.875-0.446-1.268-0.75t-0.393-0.679q0-0.393 0.438-0.688t1.259-0.295q1.25-0.018 2.214 0.429l0.268 0.143zM36.464 10.571h-2.286q-1.161 0-1.554 0.964l-4.393 10.5h3.107l0.625-1.714h3.786q0.089 0.393 0.357 1.714h2.75zM41.143 4.857v22.857q0 0.929-0.679 1.607t-1.607 0.679h-36.571q-0.929 0-1.607-0.679t-0.679-1.607v-22.857q0-0.929 0.679-1.607t1.607-0.679h36.571q0.929 0 1.607 0.679t0.679 1.607z"></path>
</symbol>
<symbol id="icon-cc-mastercard" viewBox="0 0 41 32">
<title>cc-mastercard</title>
<path d="M11.982 16.946h-0.232q-0.839 0-0.839 0.571 0 0.393 0.357 0.393 0.304 0 0.5-0.268t0.214-0.696zM19.036 16.304h1.107v-0.054q0.018-0.071 0.009-0.116t-0.018-0.125-0.036-0.143-0.080-0.116-0.134-0.089-0.205-0.036q-0.5 0-0.643 0.679zM28.679 16.946h-0.214q-0.857 0-0.857 0.571 0 0.393 0.357 0.393 0.304 0 0.5-0.268t0.214-0.696zM34.375 16.482q0-0.732-0.536-0.732-0.339 0-0.554 0.357t-0.214 0.911q0 0.75 0.5 0.75 0.357 0 0.58-0.357t0.223-0.929zM8.571 13.964h1.554l-0.786 4.679h-1l0.571-3.589-1.268 3.589h-0.696l-0.071-3.571-0.607 3.571h-0.946l0.786-4.679h1.446l0.036 2.911zM13.089 15.875q0 0.107-0.071 0.75-0.286 1.804-0.304 2.018h-0.839l0.018-0.393q-0.357 0.464-1.036 0.464-0.411 0-0.67-0.286t-0.259-0.75q0-0.696 0.464-1.080t1.304-0.384q0.25 0 0.411 0.018 0-0.054 0.009-0.098t0.018-0.080 0.009-0.054q0-0.357-0.643-0.357-0.518 0-1.054 0.179 0-0.071 0.125-0.857 0.679-0.196 1.196-0.196 1.321 0 1.321 1.107zM15.875 14.839l-0.143 0.875q-0.393-0.054-0.732-0.054-0.482 0-0.482 0.304 0 0.143 0.080 0.214t0.384 0.196q0.714 0.339 0.714 1.071 0 1.286-1.554 1.268-0.607 0-1.036-0.107 0-0.036 0.125-0.875 0.518 0.143 0.911 0.143 0.571 0 0.571-0.339 0-0.125-0.080-0.205t-0.384-0.223q-0.768-0.357-0.768-1.054 0-1.286 1.5-1.286 0.536 0 0.893 0.071zM17.446 14.839h0.5l-0.125 0.929h-0.518q-0.036 0.304-0.116 0.723t-0.125 0.688-0.045 0.321q0 0.286 0.339 0.286 0.143 0 0.286-0.036l-0.143 0.839q-0.375 0.125-0.714 0.125-0.768 0-0.804-0.839 0-0.214 0.143-1 0.054-0.357 0.446-2.607h0.982zM21.071 16.143q0 0.411-0.125 0.929h-1.982q-0.054 0.393 0.179 0.589t0.679 0.196q0.536 0 1.036-0.25l-0.161 0.964q-0.536 0.143-1.018 0.143-1.696 0-1.696-1.696 0-0.982 0.491-1.616t1.241-0.634q0.625 0 0.991 0.375t0.366 1zM23.554 14.821q-0.232 0.411-0.393 1.107-0.393-0.036-0.554 0.429t-0.446 2.286h-1l0.054-0.25q0.393-2.321 0.518-3.554h0.911l-0.054 0.589q0.25-0.375 0.455-0.527t0.509-0.080zM26.893 14.089l-0.161 1.018q-0.5-0.25-0.893-0.25-0.554 0-0.911 0.491t-0.357 1.259q0 0.536 0.241 0.839t0.688 0.304q0.375 0 0.857-0.232l-0.179 1.054q-0.5 0.143-0.893 0.143-0.804 0-1.277-0.545t-0.473-1.473q0-1.25 0.634-2.045t1.634-0.795q0.464 0 1.089 0.232zM29.786 15.875q0 0.321-0.071 0.75-0.232 1.411-0.304 2.018h-0.821l0.018-0.393q-0.357 0.464-1.054 0.464-0.411 0-0.661-0.286t-0.25-0.75q0-0.696 0.455-1.080t1.295-0.384q0.268 0 0.411 0.018 0.036-0.125 0.036-0.232 0-0.357-0.643-0.357-0.518 0-1.054 0.179 0-0.071 0.143-0.857 0.679-0.196 1.196-0.196 1.304 0 1.304 1.107zM32.304 14.821q-0.25 0.429-0.375 1.107-0.411-0.036-0.563 0.411t-0.455 2.304h-1l0.054-0.25q0.339-1.857 0.518-3.554h0.929q0 0.196-0.071 0.589 0.268-0.375 0.473-0.527t0.491-0.080zM34.821 13.964h1l-0.768 4.679h-0.946l0.054-0.339q-0.411 0.411-0.929 0.411-0.554 0-0.884-0.429t-0.33-1.143q0-0.946 0.491-1.643t1.152-0.696q0.554 0 0.946 0.518zM36.804 16.286q0-2.643-1.295-4.875t-3.536-3.536-4.884-1.304q-3.232 0-5.857 1.964 2.268 2.071 3.054 5.071h-0.893q-0.786-2.679-2.821-4.518-2.036 1.839-2.821 4.518h-0.893q0.786-3 3.054-5.071-2.625-1.964-5.857-1.964-2.643 0-4.884 1.304t-3.536 3.536-1.295 4.875 1.295 4.875 3.536 3.536 4.884 1.304q3.232 0 5.857-1.964-2.143-1.982-2.946-4.714h0.893q0.821 2.464 2.714 4.161 1.893-1.696 2.714-4.161h0.893q-0.804 2.732-2.946 4.714 2.625 1.964 5.857 1.964 2.643 0 4.884-1.304t3.536-3.536 1.295-4.875zM41.143 4.857v22.857q0 0.929-0.679 1.607t-1.607 0.679h-36.571q-0.929 0-1.607-0.679t-0.679-1.607v-22.857q0-0.929 0.679-1.607t1.607-0.679h36.571q0.929 0 1.607 0.679t0.679 1.607z"></path>
</symbol>
<symbol id="icon-cc-discover" viewBox="0 0 41 32">
<title>cc-discover</title>
<path d="M5.589 14.161q0 0.911-0.643 1.5-0.518 0.464-1.589 0.464h-0.304v-3.929h0.304q1.089 0 1.589 0.482 0.643 0.554 0.643 1.482zM37.304 13q0 0.929-1.143 0.929h-0.339v-1.804h0.357q1.125 0 1.125 0.875zM6.786 14.161q0-1.321-0.893-2.152t-2.304-0.83h-1.696v5.946h1.696q1.321 0 2.125-0.679 1.071-0.911 1.071-2.286zM7.321 17.125h1.161v-5.946h-1.161v5.946zM13.036 15.321q0-0.714-0.366-1.107t-1.348-0.75q-0.518-0.179-0.705-0.339t-0.188-0.411q0-0.286 0.241-0.473t0.616-0.188q0.518 0 0.946 0.482l0.607-0.786q-0.732-0.661-1.75-0.661-0.786 0-1.321 0.491t-0.536 1.205q0 0.625 0.321 0.991t1.143 0.652q0.661 0.232 0.804 0.339 0.339 0.214 0.339 0.607 0 0.357-0.25 0.598t-0.643 0.241q-0.857 0-1.268-0.786l-0.75 0.714q0.786 1.143 2.054 1.143 0.911 0 1.482-0.545t0.571-1.42zM18 16.929v-1.375q-0.661 0.661-1.393 0.661-0.875 0-1.438-0.58t-0.563-1.473q0-0.857 0.563-1.455t1.384-0.598q0.768 0 1.446 0.679v-1.375q-0.714-0.357-1.429-0.357-1.321 0-2.241 0.902t-0.92 2.205 0.911 2.205 2.232 0.902q0.75 0 1.446-0.339zM40 27.714v-9.411q-1.161 0.714-2.58 1.5t-4.241 2.089-5.884 2.455-7.455 2.402-9 2.107h28.018q0.464 0 0.804-0.339t0.339-0.804zM24.804 14.196q0-1.339-0.946-2.286t-2.286-0.946-2.286 0.946-0.946 2.286 0.946 2.286 2.286 0.946 2.286-0.946 0.946-2.286zM27.518 17.286l2.571-6.107h-1.268l-1.607 4-1.589-4h-1.268l2.536 6.107h0.625zM30.607 17.125h3.286v-1h-2.125v-1.607h2.054v-1h-2.054v-1.321h2.125v-1.018h-3.286v5.946zM37.589 17.125h1.429l-1.875-2.5q1.357-0.286 1.357-1.679 0-0.839-0.554-1.304t-1.554-0.464h-1.732v5.946h1.161v-2.375h0.161zM41.143 4.964v22.643q0 1-0.688 1.696t-1.67 0.696h-36.429q-0.982 0-1.67-0.696t-0.688-1.696v-22.643q0-1 0.688-1.696t1.67-0.696h36.429q0.982 0 1.67 0.696t0.688 1.696z"></path>
</symbol>
<symbol id="icon-cc-amex" viewBox="0 0 41 32">
<title>cc-amex</title>
<path d="M2.125 12.464h1.589l-0.804-1.929zM13.214 21.857l1.321-1.411-1.25-1.411h-2.911v0.875h2.536v0.982h-2.536v0.964h2.839zM16.036 20.464l1.768 1.964v-3.875zM21.179 19.625q0-0.589-0.714-0.589h-1.5v1.232h1.482q0.732 0 0.732-0.643zM26.339 19.554q0-0.518-0.75-0.518h-1.464v1.089h1.446q0.768 0 0.768-0.571zM21.375 11.232q0-0.518-0.75-0.518h-1.464v1.071h1.446q0.768 0 0.768-0.554zM29.571 12.464h1.589l-0.786-1.929zM12.482 9.696v4.839h-1.179v-3.786l-1.679 3.786h-1.018l-1.679-3.786v3.786h-2.357l-0.446-1.071h-2.411l-0.446 1.071h-1.25l2.071-4.839h1.714l1.964 4.589v-4.589h1.893l1.518 3.286 1.375-3.286h1.929zM22.411 19.625q0 0.357-0.098 0.625t-0.25 0.446-0.402 0.295-0.464 0.179-0.563 0.080-0.563 0.018-0.58-0.009-0.527-0.009v1.625h-2.25l-1.429-1.607-1.482 1.607h-4.571v-4.839h4.643l1.429 1.589 1.464-1.589h3.696q1.946 0 1.946 1.589zM17.214 13.536v1h-3.875v-4.839h3.875v1.018h-2.714v0.875h2.643v0.982h-2.643v0.964h2.714zM41.143 23.518v4.089q0 0.982-0.688 1.688t-1.67 0.705h-36.429q-0.982 0-1.67-0.705t-0.688-1.688v-12.107h1.982l0.446-1.089h0.982l0.446 1.089h3.893v-0.821l0.339 0.821h2.018l0.357-0.839v0.839h9.661v-1.768l0.179-0.018q0.179 0 0.179 0.25v1.536h4.982v-0.411q0.411 0.214 0.982 0.321t0.938 0.116 1.125-0.009 0.92-0.018l0.446-1.089h1l0.446 1.089h4.054v-1.036l0.607 1.036h3.25v-6.75h-3.214v0.786l-0.446-0.786h-3.304v0.786l-0.411-0.786h-4.446q-1.232 0-1.946 0.393v-0.393h-3.071v0.393q-0.429-0.393-1.304-0.393h-11.214l-0.768 1.732-0.768-1.732h-3.536v0.786l-0.393-0.786h-3.018l-1.393 3.196v-6.982q0-0.982 0.688-1.688t1.67-0.705h36.429q0.982 0 1.67 0.705t0.688 1.688v12.107h-2.143q-0.911 0-1.446 0.393v-0.393h-3.161q-0.982 0-1.393 0.393v-0.393h-5.643v0.393q-0.554-0.393-1.554-0.393h-3.732v0.393q-0.411-0.393-1.625-0.393h-4.179l-0.964 1.036-0.893-1.036h-6.232v6.75h6.125l0.982-1.054 0.929 1.054h3.768v-1.589h0.375q1.054 0 1.607-0.232v1.821h3.107v-1.768h0.143q0.143 0 0.179 0.036t0.036 0.179v1.554h9.446q1.018 0 1.571-0.429v0.429h3q1.071 0 1.696-0.304zM27.607 19.339q0 0.411-0.214 0.768t-0.607 0.518q0.446 0.161 0.607 0.464t0.161 0.821v0.964h-1.161v-0.804q0-0.589-0.214-0.777t-0.821-0.188h-1.232v1.768h-1.161v-4.839h2.75q0.857 0 1.375 0.268t0.518 1.036zM22.661 11q0 0.429-0.223 0.786t-0.598 0.518q0.464 0.161 0.616 0.455t0.152 0.83v0.946h-1.161q0-0.161 0.009-0.473t0-0.446-0.054-0.33-0.152-0.286-0.313-0.152-0.527-0.063h-1.25v1.75h-1.143v-4.839l2.732 0.018q0.875 0 1.393 0.259t0.518 1.027zM32.107 21.875v1h-3.857v-4.839h3.857v1h-2.696v0.875h2.643v0.982h-2.643v0.964zM24.5 9.696v4.839h-1.179v-4.839h1.179zM36.875 21.339q0 1.536-1.821 1.536h-2.25v-1.036h2.25q0.607 0 0.607-0.446 0-0.286-0.304-0.375t-0.741-0.089-0.884-0.063-0.75-0.402-0.304-0.982q0-0.696 0.464-1.071t1.179-0.375h2.321v1.018h-2.125q-0.643 0-0.643 0.446 0 0.286 0.313 0.366t0.75 0.071 0.875 0.045 0.75 0.384 0.313 0.973zM41.143 20.446v1.804q-0.429 0.625-1.571 0.625h-2.232v-1.036h2.232q0.589 0 0.589-0.446 0-0.232-0.223-0.339t-0.554-0.098-0.714-0.036-0.714-0.143-0.554-0.429-0.223-0.866q0-0.696 0.473-1.071t1.188-0.375h2.304v1.018h-2.107q-0.643 0-0.643 0.446 0 0.357 0.518 0.393t1.223 0.089 1.009 0.464zM38.196 9.714v4.821h-1.643l-2.179-3.625v3.625h-2.357l-0.464-1.071h-2.393l-0.446 1.071h-1.339q-2.304 0-2.304-2.375 0-2.464 2.375-2.464h1.125v1.054q-0.125 0-0.5-0.018t-0.509-0.009-0.411 0.036-0.384 0.116-0.259 0.241-0.205 0.411-0.054 0.598q0 0.679 0.241 1.036t0.884 0.357h0.518l1.643-3.804h1.732l1.946 4.571v-4.571h1.768l2.036 3.357v-3.357h1.179z"></path>
</symbol>
<symbol id="icon-cc-paypal" viewBox="0 0 41 32">
<title>cc-paypal</title>
<path d="M5.75 15.411h-0.268q-0.339 0-0.339-0.321 0-0.5 0.339-1.518 0.089-0.268 0.268-0.348t0.5-0.080q1.375 0 1.375 0.875 0 0.732-0.545 1.063t-1.33 0.33zM11.857 18.286q-0.839 0-0.839-0.518 0-1.107 2.196-1.107l0.054 0.054q-0.089 1.571-1.411 1.571zM25.679 15.446h-0.268q-0.339 0-0.339-0.339 0-0.5 0.339-1.518 0.089-0.268 0.259-0.339t0.509-0.071q1.375 0 1.375 0.875 0 0.732-0.545 1.063t-1.33 0.33zM31.786 18.304q-0.839 0-0.839-0.536 0-1.107 2.196-1.107l0.054 0.054q-0.089 1.589-1.411 1.589zM6.661 11.75h-2.286q-0.143 0-0.259 0.071t-0.152 0.134-0.125 0.223q-0.054 0.125-0.804 3.393t-0.75 3.429q0 0.125 0.098 0.223t0.241 0.098h1.107q0.446 0 0.58-0.616l0.268-1.232t0.58-0.616q0.839 0 1.563-0.134t1.438-0.438 1.134-0.938 0.42-1.509q0-0.643-0.259-1.089t-0.732-0.652-0.955-0.277-1.107-0.071zM12.839 13.464q-0.679 0-1.321 0.107-0.036 0-0.152 0.018t-0.161 0.027l-0.134 0.027t-0.134 0.036-0.116 0.054-0.116 0.071-0.089 0.089-0.080 0.125-0.071 0.161q-0.161 0.518-0.161 0.696t0.161 0.179q0.089 0 0.384-0.089t0.348-0.107q0.536-0.143 1.036-0.143 1.321 0 1.321 0.643 0 0.196-0.179 0.25-0.143 0.036-0.321 0.054t-0.384 0.027-0.313 0.027q-0.679 0.071-1.152 0.179t-1.009 0.348-0.813 0.696-0.277 1.116q0 0.679 0.464 1.063t1.143 0.384q0.429 0 0.813-0.116t0.589-0.232 0.688-0.42q-0.054 0.125-0.054 0.268t0.098 0.241 0.223 0.098h1q0.018-0.018 0.125-0.063t0.134-0.063 0.089-0.063 0.089-0.098 0.045-0.143l0.804-3.464q0.071-0.232 0.071-0.536 0-1.446-2.589-1.446zM22.268 13.554h-1.321q-0.393 0-0.696 0.411-0.089 0.125-0.527 0.911t-0.83 1.455-0.464 0.688l-0.089-0.071q0-1.375-0.482-2.964-0.018-0.089-0.063-0.152t-0.107-0.116-0.116-0.089-0.152-0.054-0.152-0.027-0.17-0.018-0.161-0.009h-0.33q-0.679 0-0.679 0.375l0.018 0.089q0.089 0.946 0.446 2.696t0.446 2.554q0.036 0.286 0.036 0.429 0 0.339-0.545 1.098t-0.545 1.045q0 0.232 0.714 0.232 1.089 0 1.357-0.446l4.375-7.411q0.179-0.357 0.179-0.464 0-0.161-0.143-0.161zM26.589 11.786h-2.304q-0.321 0-0.518 0.411-0.107 0.232-0.83 3.42t-0.723 3.402q0 0.357 0.768 0.357h0.455t0.17-0.018 0.152-0.036 0.152-0.054 0.116-0.080 0.098-0.107 0.054-0.152l0.375-1.625q0.036-0.179 0.188-0.304t0.348-0.125q0.839 0 1.563-0.125t1.438-0.438 1.134-0.938 0.42-1.5q0-0.643-0.259-1.089t-0.732-0.652-0.955-0.277-1.107-0.071zM32.768 13.464q-0.464 0-1.321 0.107-0.679 0.107-0.857 0.286-0.125 0.143-0.196 0.339-0.143 0.429-0.143 0.696 0 0.179 0.143 0.179 0.018 0 0.732-0.214 0.536-0.143 1.036-0.143 1.321 0 1.321 0.643 0 0.214-0.179 0.25-0.071 0.018-1.018 0.125-0.679 0.071-1.152 0.179t-1.009 0.348-0.813 0.696-0.277 1.116 0.464 1.045 1.143 0.384q0.429 0 0.804-0.107t0.607-0.232 0.679-0.429q-0.054 0.268-0.054 0.286 0 0.089 0.036 0.152t0.116 0.098 0.143 0.063 0.188 0.036 0.17 0.009h0.313q0.75 0 0.857-0.446l0.804-3.464q0.054-0.268 0.054-0.554 0-1.446-2.589-1.446zM38.518 11.839h-0.982q-0.446 0-0.589 0.714-0.179 0.786-0.652 2.982t-0.759 3.393v0.089q0 0.286 0.286 0.321h1.036q0.179 0 0.33-0.116t0.188-0.295l1.482-6.679h-0.018l0.018-0.089q0-0.125-0.098-0.223t-0.241-0.098zM41.143 4.857v22.857q0 0.929-0.679 1.607t-1.607 0.679h-36.571q-0.929 0-1.607-0.679t-0.679-1.607v-22.857q0-0.929 0.679-1.607t1.607-0.679h36.571q0.929 0 1.607 0.679t0.679 1.607z"></path>
</symbol>
<symbol id="icon-toggle-off" viewBox="0 0 37 32">
<title>toggle-off</title>
<path d="M20.571 16.286q0-1.857-0.723-3.545t-1.955-2.92-2.92-1.955-3.545-0.723-3.545 0.723-2.92 1.955-1.955 2.92-0.723 3.545 0.723 3.545 1.955 2.92 2.92 1.955 3.545 0.723 3.545-0.723 2.92-1.955 1.955-2.92 0.723-3.545zM34.286 16.286q0-1.857-0.723-3.545t-1.955-2.92-2.92-1.955-3.545-0.723h-6.893q2.125 1.607 3.366 4t1.241 5.143-1.241 5.143-3.366 4h6.893q1.857 0 3.545-0.723t2.92-1.955 1.955-2.92 0.723-3.545zM36.571 16.286q0 2.321-0.911 4.438t-2.438 3.643-3.643 2.438-4.438 0.911h-13.714q-2.321 0-4.438-0.911t-3.643-2.438-2.438-3.643-0.911-4.438 0.911-4.438 2.438-3.643 3.643-2.438 4.438-0.911h13.714q2.321 0 4.438 0.911t3.643 2.438 2.438 3.643 0.911 4.438z"></path>
</symbol>
<symbol id="icon-toggle-on" viewBox="0 0 37 32">
<title>toggle-on</title>
<path d="M0 16.286q0-2.321 0.911-4.438t2.438-3.643 3.643-2.438 4.438-0.911h13.714q2.321 0 4.438 0.911t3.643 2.438 2.438 3.643 0.911 4.438-0.911 4.438-2.438 3.643-3.643 2.438-4.438 0.911h-13.714q-2.321 0-4.438-0.911t-3.643-2.438-2.438-3.643-0.911-4.438zM25.143 25.429q1.857 0 3.545-0.723t2.92-1.955 1.955-2.92 0.723-3.545-0.723-3.545-1.955-2.92-2.92-1.955-3.545-0.723-3.545 0.723-2.92 1.955-1.955 2.92-0.723 3.545 0.723 3.545 1.955 2.92 2.92 1.955 3.545 0.723z"></path>
</symbol>
</defs>
</svg>
