<?xml version="1.0" encoding="utf-8"?>
<!-- Generator: Adobe Illustrator 22.0.1, SVG Export Plug-In . SVG Version: 6.00 Build 0)  -->
<svg version="1.1" id="artwork" xmlns="http://www.w3.org/2000/svg" xmlns:xlink="http://www.w3.org/1999/xlink" x="0px" y="0px"
	 viewBox="0 0 135 39.9" enable-background="new 0 0 135 39.9" xml:space="preserve">
<g>
	<rect x="-10" y="-10.1" fill="#FFFFFF" fill-opacity="0" width="155" height="60"/>
	<g>
		<path d="M130,39.9H5c-2.8,0-5-2.2-5-5v-30c0-2.8,2.2-5,5-5h125c2.8,0,5,2.2,5,5v30C135,37.6,132.8,39.9,130,39.9z"/>
	</g>
	<g>
		<g>
			<path fill="#A6A6A6" d="M130,0.7c2.3,0,4.2,1.9,4.2,4.2v30c0,2.3-1.9,4.2-4.2,4.2H5c-2.3,0-4.2-1.9-4.2-4.2v-30
				c0-2.3,1.9-4.2,4.2-4.2H130 M130-0.1H5c-2.8,0-5,2.2-5,5v30c0,2.8,2.2,5,5,5h125c2.8,0,5-2.2,5-5v-30C135,2.1,132.8-0.1,130-0.1
				L130-0.1z"/>
		</g>
	</g>
	<g>
		<path fill="#FFFFFF" stroke="#FFFFFF" stroke-width="0.2" stroke-miterlimit="10" d="M47.4,10.1c0,0.8-0.2,1.5-0.7,2
			c-0.6,0.6-1.3,0.9-2.2,0.9c-0.9,0-1.6-0.3-2.2-0.9c-0.6-0.6-0.9-1.3-0.9-2.2c0-0.9,0.3-1.6,0.9-2.2c0.6-0.6,1.3-0.9,2.2-0.9
			c0.4,0,0.8,0.1,1.2,0.3c0.4,0.2,0.7,0.4,0.9,0.7l-0.5,0.5c-0.4-0.5-0.9-0.7-1.6-0.7c-0.6,0-1.2,0.2-1.6,0.7
			c-0.5,0.4-0.7,1-0.7,1.7s0.2,1.3,0.7,1.7c0.5,0.4,1,0.7,1.6,0.7c0.7,0,1.2-0.2,1.7-0.7c0.3-0.3,0.5-0.7,0.5-1.2h-2.2V9.7h2.9
			C47.4,9.8,47.4,10,47.4,10.1z"/>
		<path fill="#FFFFFF" stroke="#FFFFFF" stroke-width="0.2" stroke-miterlimit="10" d="M52,7.6h-2.7v1.9h2.5v0.7h-2.5v1.9H52v0.7
			h-3.5v-6H52V7.6z"/>
		<path fill="#FFFFFF" stroke="#FFFFFF" stroke-width="0.2" stroke-miterlimit="10" d="M55.3,12.9h-0.8V7.6h-1.7V6.9H57v0.7h-1.7
			V12.9z"/>
		<path fill="#FFFFFF" stroke="#FFFFFF" stroke-width="0.2" stroke-miterlimit="10" d="M59.9,12.9v-6h0.8v6H59.9z"/>
		<path fill="#FFFFFF" stroke="#FFFFFF" stroke-width="0.2" stroke-miterlimit="10" d="M64.1,12.9h-0.8V7.6h-1.7V6.9h4.1v0.7h-1.7
			V12.9z"/>
		<path fill="#FFFFFF" stroke="#FFFFFF" stroke-width="0.2" stroke-miterlimit="10" d="M73.6,12.1C73,12.7,72.3,13,71.4,13
			c-0.9,0-1.6-0.3-2.2-0.9c-0.6-0.6-0.9-1.3-0.9-2.2s0.3-1.6,0.9-2.2c0.6-0.6,1.3-0.9,2.2-0.9c0.9,0,1.6,0.3,2.2,0.9
			c0.6,0.6,0.9,1.3,0.9,2.2C74.5,10.8,74.2,11.5,73.6,12.1z M69.8,11.6c0.4,0.4,1,0.7,1.6,0.7c0.6,0,1.2-0.2,1.6-0.7
			c0.4-0.4,0.7-1,0.7-1.7S73.5,8.6,73,8.2c-0.4-0.4-1-0.7-1.6-0.7c-0.6,0-1.2,0.2-1.6,0.7c-0.4,0.4-0.7,1-0.7,1.7
			S69.3,11.1,69.8,11.6z"/>
		<path fill="#FFFFFF" stroke="#FFFFFF" stroke-width="0.2" stroke-miterlimit="10" d="M75.6,12.9v-6h0.9l2.9,4.7h0l0-1.2V6.9h0.8v6
			h-0.8L76.3,8h0l0,1.2v3.7H75.6z"/>
	</g>
	<path fill="#FFFFFF" d="M68.1,21.6c-2.4,0-4.3,1.8-4.3,4.3c0,2.4,1.9,4.3,4.3,4.3c2.4,0,4.3-1.8,4.3-4.3
		C72.4,23.4,70.5,21.6,68.1,21.6z M68.1,28.5c-1.3,0-2.4-1.1-2.4-2.6c0-1.5,1.1-2.6,2.4-2.6c1.3,0,2.4,1,2.4,2.6
		C70.5,27.4,69.4,28.5,68.1,28.5z M58.8,21.6c-2.4,0-4.3,1.8-4.3,4.3c0,2.4,1.9,4.3,4.3,4.3c2.4,0,4.3-1.8,4.3-4.3
		C63.1,23.4,61.2,21.6,58.8,21.6z M58.8,28.5c-1.3,0-2.4-1.1-2.4-2.6c0-1.5,1.1-2.6,2.4-2.6c1.3,0,2.4,1,2.4,2.6
		C61.2,27.4,60.1,28.5,58.8,28.5z M47.7,22.9v1.8h4.3c-0.1,1-0.5,1.8-1,2.3c-0.6,0.6-1.6,1.3-3.3,1.3c-2.7,0-4.7-2.1-4.7-4.8
		s2.1-4.8,4.7-4.8c1.4,0,2.5,0.6,3.3,1.3l1.3-1.3c-1.1-1-2.5-1.8-4.5-1.8c-3.6,0-6.7,3-6.7,6.6c0,3.6,3.1,6.6,6.7,6.6
		c2,0,3.4-0.6,4.6-1.9c1.2-1.2,1.6-2.9,1.6-4.2c0-0.4,0-0.8-0.1-1.1H47.7z M93.1,24.3c-0.4-1-1.4-2.7-3.6-2.7c-2.2,0-4,1.7-4,4.3
		c0,2.4,1.8,4.3,4.2,4.3c1.9,0,3.1-1.2,3.5-1.9l-1.4-1c-0.5,0.7-1.1,1.2-2.1,1.2c-1,0-1.6-0.4-2.1-1.3l5.7-2.4L93.1,24.3z
		 M87.3,25.8c0-1.6,1.3-2.5,2.2-2.5c0.7,0,1.4,0.4,1.6,0.9L87.3,25.8z M82.6,29.9h1.9V17.4h-1.9V29.9z M79.6,22.6L79.6,22.6
		c-0.5-0.5-1.3-1-2.3-1c-2.1,0-4.1,1.9-4.1,4.3c0,2.4,1.9,4.2,4.1,4.2c1,0,1.8-0.5,2.2-1h0.1v0.6c0,1.6-0.9,2.5-2.3,2.5
		c-1.1,0-1.9-0.8-2.1-1.5l-1.6,0.7c0.5,1.1,1.7,2.5,3.8,2.5c2.2,0,4-1.3,4-4.4v-7.6h-1.8V22.6z M77.4,28.5c-1.3,0-2.4-1.1-2.4-2.6
		c0-1.5,1.1-2.6,2.4-2.6c1.3,0,2.3,1.1,2.3,2.6C79.7,27.4,78.7,28.5,77.4,28.5z M101.8,17.4h-4.5v12.5h1.9v-4.7h2.6
		c2.1,0,4.1-1.5,4.1-3.9S103.9,17.4,101.8,17.4z M101.9,23.4h-2.7v-4.3h2.7c1.4,0,2.2,1.2,2.2,2.1C104,22.2,103.2,23.4,101.9,23.4z
		 M113.4,21.6c-1.4,0-2.8,0.6-3.3,1.9l1.7,0.7c0.4-0.7,1-0.9,1.7-0.9c1,0,1.9,0.6,2,1.6V25c-0.3-0.2-1.1-0.5-1.9-0.5
		c-1.8,0-3.6,1-3.6,2.8c0,1.7,1.5,2.8,3.1,2.8c1.3,0,1.9-0.6,2.4-1.2h0.1v1h1.8v-4.8C117.2,22.8,115.5,21.6,113.4,21.6z M113.2,28.5
		c-0.6,0-1.5-0.3-1.5-1.1c0-1,1.1-1.3,2-1.3c0.8,0,1.2,0.2,1.7,0.4C115.2,27.6,114.2,28.5,113.2,28.5z M123.7,21.9l-2.1,5.4h-0.1
		l-2.2-5.4h-2l3.3,7.6l-1.9,4.2h1.9l5.1-11.8H123.7z M106.9,29.9h1.9V17.4h-1.9V29.9z"/>
	<g>
		
			<linearGradient id="SVGID_1_" gradientUnits="userSpaceOnUse" x1="21.7996" y1="173.1654" x2="5.0172" y2="156.383" gradientTransform="matrix(1 0 0 -1 0 181.7502)">
			<stop  offset="0" style="stop-color:#00A0FF"/>
			<stop  offset="6.574450e-03" style="stop-color:#00A1FF"/>
			<stop  offset="0.2601" style="stop-color:#00BEFF"/>
			<stop  offset="0.5122" style="stop-color:#00D2FF"/>
			<stop  offset="0.7604" style="stop-color:#00DFFF"/>
			<stop  offset="1" style="stop-color:#00E3FF"/>
		</linearGradient>
		<path fill="url(#SVGID_1_)" d="M10.4,7.4C10.1,7.7,10,8.2,10,8.8v22.1c0,0.6,0.2,1.1,0.5,1.4l0.1,0.1L22.9,20v-0.1v-0.1L10.4,7.4
			L10.4,7.4z"/>
		
			<linearGradient id="SVGID_2_" gradientUnits="userSpaceOnUse" x1="33.8343" y1="161.8737" x2="9.6374" y2="161.8737" gradientTransform="matrix(1 0 0 -1 0 181.7502)">
			<stop  offset="0" style="stop-color:#FFE000"/>
			<stop  offset="0.4087" style="stop-color:#FFBD00"/>
			<stop  offset="0.7754" style="stop-color:#FFA500"/>
			<stop  offset="1" style="stop-color:#FF9C00"/>
		</linearGradient>
		<path fill="url(#SVGID_2_)" d="M27,24.2L22.9,20v-0.1v-0.1l4.1-4.1l0.1,0.1l4.9,2.8c1.4,0.8,1.4,2.1,0,2.9L27,24.2L27,24.2z"/>
		
			<linearGradient id="SVGID_3_" gradientUnits="userSpaceOnUse" x1="24.8269" y1="159.579" x2="2.0686" y2="136.8207" gradientTransform="matrix(1 0 0 -1 0 181.7502)">
			<stop  offset="0" style="stop-color:#FF3A44"/>
			<stop  offset="1" style="stop-color:#C31162"/>
		</linearGradient>
		<path fill="url(#SVGID_3_)" d="M27.1,24.1l-4.2-4.2L10.4,32.3c0.5,0.5,1.2,0.5,2.1,0.1L27.1,24.1"/>
		
			<linearGradient id="SVGID_4_" gradientUnits="userSpaceOnUse" x1="7.2972" y1="181.6989" x2="17.4598" y2="171.5364" gradientTransform="matrix(1 0 0 -1 0 181.7502)">
			<stop  offset="0" style="stop-color:#32A071"/>
			<stop  offset="6.850000e-02" style="stop-color:#2DA771"/>
			<stop  offset="0.4762" style="stop-color:#15CF74"/>
			<stop  offset="0.8009" style="stop-color:#06E775"/>
			<stop  offset="1" style="stop-color:#00F076"/>
		</linearGradient>
		<path fill="url(#SVGID_4_)" d="M27.1,15.7L12.5,7.4c-0.9-0.5-1.6-0.4-2.1,0.1l12.5,12.5L27.1,15.7z"/>
		<g>
			<path opacity="0.2" enable-background="new    " d="M27,24l-14.5,8.2c-0.8,0.5-1.5,0.4-2,0l0,0l-0.1,0.1l0,0l0.1,0.1l0,0
				c0.5,0.4,1.2,0.5,2,0L27,24L27,24z"/>
			<path opacity="0.12" enable-background="new    " d="M10.4,32.2c-0.3-0.3-0.5-0.8-0.5-1.4v0.1c0,0.6,0.2,1.1,0.5,1.4V32.2
				L10.4,32.2z"/>
		</g>
		<path opacity="0.12" enable-background="new    " d="M32,21.2L27,24l0.1,0.1l4.9-2.8c0.7-0.4,1-0.9,1-1.4l0,0
			C33,20.3,32.6,20.8,32,21.2z"/>
		<path opacity="0.25" fill="#FFFFFF" enable-background="new    " d="M12.5,7.5L32,18.6c0.6,0.4,1,0.8,1,1.3l0,0c0-0.5-0.3-1-1-1.4
			L12.5,7.4C11.1,6.6,10,7.2,10,8.8V9C10,7.4,11.1,6.7,12.5,7.5z"/>
	</g>
</g>
</svg>
